<?xml version="1.0" encoding="UTF-8"?>
<svg xmlns="http://www.w3.org/2000/svg" width="278" height="105" viewBox="0 0 278 105" fill="none">
  <path d="M277.86 95.61C277.86 98.52 277.56 101.36 276.99 104.1H0C1.17 78.21 22.53 57.58 48.71 57.58C54.54 57.58 60.13 58.6 65.31 60.47C70.36 43.34 86.21 30.83 104.97 30.83C109.56 30.83 113.97 31.58 118.1 32.96C128.78 13.32 149.58 0 173.5 0C205.33 0 231.65 23.6 235.91 54.26C236.11 54.26 236.32 54.26 236.52 54.26C259.36 54.26 277.87 72.78 277.87 95.62L277.86 95.61Z" fill="white"></path>
</svg>
