<?xml version="1.0" encoding="UTF-8"?>
<svg xmlns="http://www.w3.org/2000/svg" width="279" height="105" viewBox="0 0 279 105" fill="none">
  <path d="M278.48 95.61C278.48 98.52 278.18 101.36 277.61 104.1H0.619995C1.79 78.21 23.15 57.58 49.33 57.58C55.16 57.58 60.75 58.6 65.93 60.47C70.98 43.34 86.83 30.83 105.59 30.83C110.18 30.83 114.59 31.58 118.72 32.96C129.4 13.32 150.2 0 174.12 0C205.95 0 232.27 23.6 236.53 54.26C236.73 54.26 236.94 54.26 237.14 54.26C259.98 54.26 278.49 72.78 278.49 95.62L278.48 95.61Z" fill="white"></path>
</svg>
