<?xml version="1.0" encoding="UTF-8"?>
<svg xmlns="http://www.w3.org/2000/svg" width="180" height="67" viewBox="0 0 180 67" fill="none">
  <path d="M179.994 61.5355C179.994 63.4084 179.799 65.2363 179.43 66.9998H0C0.757908 50.3367 14.5946 37.059 31.5536 37.059C35.3302 37.059 38.9513 37.7154 42.3068 38.919C45.5781 27.8939 55.8455 19.8423 67.998 19.8423C70.9713 19.8423 73.8281 20.325 76.5034 21.2132C83.4217 8.57269 96.8957 -0.000221252 112.391 -0.000221252C133.01 -0.000221252 150.059 15.189 152.819 34.9222C152.948 34.9222 153.085 34.9222 153.214 34.9222C168.01 34.9222 180 46.8419 180 61.542L179.994 61.5355Z" fill="white"></path>
</svg>
