<?xml version="1.0" encoding="UTF-8"?>
<svg xmlns="http://www.w3.org/2000/svg" width="250" height="76" viewBox="0 0 250 76" fill="none">
  <g clip-path="url(#clip0_14_552)">
    <path d="M211.58 0H37.73C16.8923 0 0 16.8923 0 37.73C0 58.5677 16.8923 75.46 37.73 75.46H211.58C232.418 75.46 249.31 58.5677 249.31 37.73C249.31 16.8923 232.418 0 211.58 0Z" fill="url(#paint0_linear_14_552)"></path>
  </g>
  <path d="M55.271 35.545V38.45C55.271 45.345 50.476 50.56 43.021 50.56C35.286 50.56 30.001 44.995 30.001 37.785C30.001 30.505 35.426 24.94 42.741 24.94C47.396 24.94 51.351 27.215 53.521 30.645L47.571 34.04C46.696 32.71 45.051 31.8 42.881 31.8C39.346 31.8 37.001 34.32 37.001 37.82C37.001 40.725 38.611 44.085 43.161 44.085C45.786 44.085 47.291 43.035 48.026 41.495H42.811V35.545H55.271ZM64.9121 43.56H74.0121V50H57.9121V25.5H73.8371V31.87H64.9121V34.53H72.9621V40.83H64.9121V43.56ZM93.9635 25.5V32.29H88.1885V50H81.1885V32.29H75.4135V25.5H93.9635ZM117.238 50L116.398 46.85H109.328L108.488 50H100.963L108.768 25.5H116.958L124.763 50H117.238ZM110.833 41.25H114.893L112.863 33.725L110.833 41.25ZM133.169 43.21H141.219V50H126.169V25.5H133.169V43.21ZM150.327 43.56H159.427V50H143.327V25.5H159.252V31.87H150.327V34.53H158.377V40.83H150.327V43.56ZM174.864 49.965L170.979 42.265H169.229V49.965H162.229V25.465H172.029C177.314 25.465 181.304 28.79 181.304 34.075C181.304 37.05 179.834 39.43 177.524 40.83L182.354 49.965H174.864ZM169.229 31.905V36.455H171.889C173.359 36.49 174.304 35.65 174.304 34.215C174.304 32.78 173.359 31.905 171.889 31.905H169.229ZM200.741 25.5V32.29H194.966V50H187.966V32.29H182.191V25.5H200.741ZM210.97 50.56C205.51 50.56 201.94 48.075 200.75 44.4L206.735 40.935C207.61 43.14 209.08 44.05 211.145 44.05C212.825 44.05 213.525 43.525 213.525 42.79C213.525 41.53 211.67 41.32 209.185 40.585C205.125 39.36 201.87 37.19 201.87 32.71C201.87 28.3 205.335 24.94 210.69 24.94C214.75 24.94 218.32 26.865 219.895 30.645L214.085 34.04C213.35 32.185 212.02 31.45 210.725 31.45C209.43 31.45 208.87 32.045 208.87 32.745C208.87 33.83 210.06 34.215 212.86 35.02C216.71 36.14 220.525 37.61 220.525 42.72C220.525 47.76 216.78 50.56 210.97 50.56Z" fill="white"></path>
  <defs>
    <linearGradient id="paint0_linear_14_552" x1="0" y1="37.73" x2="249.31" y2="37.73" gradientUnits="userSpaceOnUse">
      <stop stop-color="#FF6600"></stop>
      <stop offset="1" stop-color="#F6441E"></stop>
    </linearGradient>
    <clipPath id="clip0_14_552">
      <rect width="249.31" height="75.46" fill="white"></rect>
    </clipPath>
  </defs>
</svg>
