<?xml version="1.0" encoding="UTF-8"?>
<svg xmlns="http://www.w3.org/2000/svg" width="106" height="106" viewBox="0 0 106 106" fill="none">
  <path d="M87.1939 0H19.0182C8.64821 0 0.241699 8.38495 0.241699 18.7283V86.7292C0.241699 97.0725 8.64821 105.457 19.0182 105.457H87.1939C97.5638 105.457 105.97 97.0725 105.97 86.7292V18.7283C105.97 8.38495 97.5638 0 87.1939 0Z" fill="#FF6600"></path>
  <path d="M78.1413 17.5566V67.735H27.9029V17.5566H78.1413ZM79.859 15.8433H26.1753V69.4582H79.859V15.8433Z" fill="white"></path>
  <path d="M70.7175 17.5565V60.2712H27.9226L48.6636 55.6335L27.9325 48.2977L48.9104 50.0701L33.5299 38.8351L51.1711 45.2551L34.2012 23.8288L55.6825 40.6272L49.2362 23.1789L59.9472 38.008L58.9896 17.5861L65.7124 38.0671L70.7175 17.5565Z" fill="white"></path>
  <path d="M79.4049 83.017C80.0071 83.017 80.5007 82.5247 80.5007 81.924C80.5007 81.3234 80.0071 80.8311 79.4049 80.8311C78.8027 80.8311 78.3091 81.3234 78.3091 81.924C78.3091 82.5247 78.8027 83.017 79.4049 83.017Z" fill="white"></path>
  <path d="M79.2173 81.3136C79.2173 81.3136 79.2173 81.2643 79.2864 81.2643C79.6418 81.2643 79.6813 81.4416 79.6813 81.609C79.6813 81.737 79.632 81.9339 79.2963 81.9339C79.2667 81.9339 79.2272 81.9339 79.2075 81.9339V81.3234L79.2173 81.3136ZM78.8619 82.5739C78.9508 82.5739 79.0396 82.5641 79.1186 82.5641C79.1877 82.5641 79.2766 82.5641 79.3654 82.5739V82.5247H79.3161C79.2272 82.5247 79.2075 82.505 79.2075 82.4065V81.9831C79.3654 81.9831 79.3654 81.993 79.4444 82.0816L79.8195 82.5641C79.8195 82.5641 79.9182 82.5542 79.9676 82.5542C80.017 82.5542 80.0762 82.5542 80.1255 82.5641V82.5148C80.0466 82.5148 80.0071 82.505 79.938 82.4065L79.6616 82.0521C79.6221 82.0028 79.5826 81.9634 79.553 81.9339C79.78 81.8847 79.8985 81.737 79.8985 81.5597C79.8985 81.2643 79.6714 81.1855 79.4246 81.1855C79.3358 81.1855 79.2469 81.1954 79.1285 81.1954C79.0495 81.1954 78.9508 81.1954 78.8718 81.1855V81.2348H78.9212C79.01 81.2348 79.0298 81.2545 79.0298 81.3529V82.4065C79.0298 82.505 79.01 82.5247 78.9212 82.5247H78.8718V82.5739H78.8619Z" fill="white"></path>
  <path d="M28.0115 90.3136V80.8018H33.6484V81.4221H29.8082V85.0949H33.4312V85.7152H29.8082V89.713H33.7076V90.3333H28.0115V90.3136Z" fill="white"></path>
  <path d="M36.067 80.8018H39.1767C42.622 80.8018 44.2509 83.2339 44.2509 85.7349C44.2509 88.7775 42.2962 90.3136 39.5123 90.3136H36.067V80.8018ZM37.8637 89.6933H38.9793C41.852 89.6933 42.4542 87.6255 42.4542 85.7546C42.4542 83.3619 41.3386 81.4123 39.0681 81.4123H37.8637V89.6933Z" fill="white"></path>
  <path d="M46.4819 90.3136V80.8018H48.2786V90.3136H46.4819Z" fill="white"></path>
  <path d="M51.5955 88.6101C52.099 89.4077 52.6222 89.8311 53.5699 89.8311C54.3893 89.8311 55.2778 89.1714 55.2778 88.1867C55.2778 85.4297 50.8058 86.7294 50.8058 83.3225C50.8058 81.7963 52.0891 80.5359 53.8661 80.5359C55.0408 80.5359 56.2354 81.1858 56.7388 82.2394L56.1169 82.6332C55.7516 81.8652 55.1791 81.2842 54.1622 81.2842C53.1454 81.2842 52.6025 82.0326 52.6025 82.9385C52.6025 85.1737 57.0745 84.2284 57.0745 87.6649C57.0745 89.4077 55.5443 90.5696 53.9352 90.5696C52.642 90.5696 51.5955 90.1856 50.9341 89.0828L51.5955 88.6003V88.6101Z" fill="white"></path>
  <path d="M63.4024 80.5359C66.1665 80.5359 68.1409 82.7514 68.1409 85.5577C68.1409 88.364 66.1665 90.5795 63.4024 90.5795C60.6382 90.5795 58.6737 88.364 58.6737 85.5577C58.6737 82.7514 60.6481 80.5359 63.4024 80.5359ZM63.4024 89.9591C65.7025 89.9591 66.2159 87.4088 66.2159 85.5577C66.2159 83.7065 65.7025 81.1562 63.4024 81.1562C61.1022 81.1562 60.6086 83.7065 60.6086 85.5577C60.6086 87.4088 61.1121 89.9591 63.4024 89.9591Z" fill="white"></path>
  <path d="M70.1746 90.3136V80.8018H71.7837L76.7789 87.3498H76.8085V80.8018H77.5785V90.3136H76.7888L70.9939 82.7219H70.9643V90.3136H70.1943H70.1746Z" fill="white"></path>
  <path d="M28.2188 77.9757C28.3866 78.2317 28.5545 78.3695 28.8605 78.3695C29.1271 78.3695 29.4232 78.1529 29.4232 77.828C29.4232 76.9221 27.9622 77.3553 27.9622 76.2426C27.9622 75.7405 28.3768 75.3269 28.9592 75.3269C29.3442 75.3269 29.7292 75.5337 29.8971 75.8882L29.6996 76.0162C29.5812 75.77 29.3936 75.5731 29.0579 75.5731C28.7223 75.5731 28.5446 75.8192 28.5446 76.1146C28.5446 76.8433 30.0056 76.538 30.0056 77.6606C30.0056 78.2317 29.5022 78.6058 28.979 78.6058C28.5545 78.6058 28.2188 78.4778 28.0016 78.1233L28.2188 77.9658V77.9757Z" fill="white"></path>
  <path d="M31.9405 75.3367C32.8488 75.3367 33.4904 76.0653 33.4904 76.9811C33.4904 77.8968 32.8488 78.6254 31.9405 78.6254C31.0323 78.6254 30.4005 77.8968 30.4005 76.9811C30.4005 76.0653 31.0422 75.3367 31.9405 75.3367ZM31.9405 78.4187C32.6908 78.4187 32.8586 77.5817 32.8586 76.9811C32.8586 76.3804 32.6908 75.5434 31.9405 75.5434C31.1903 75.5434 31.0224 76.3804 31.0224 76.9811C31.0224 77.5817 31.1903 78.4187 31.9405 78.4187Z" fill="white"></path>
  <path d="M34.6159 75.4253V77.6506C34.6159 78.1331 35.0404 78.3104 35.2773 78.3104C35.5537 78.3104 36.0276 78.2119 36.0276 77.6802V75.4351H36.2744V77.7589C36.2744 78.1528 35.9683 78.6353 35.1786 78.6353C34.6652 78.6353 34.0236 78.4384 34.0236 77.6506V75.445H34.606L34.6159 75.4253Z" fill="white"></path>
  <path d="M37.4096 78.537V75.6322H36.7877V75.4353H38.614V75.6322H37.9921V78.537H37.4096Z" fill="white"></path>
  <path d="M39.1075 78.5368V75.4253H39.69V76.794H40.9733V75.4253H41.5558V78.5368H40.9733V77.0401H39.69V78.5368H39.1075Z" fill="white"></path>
  <path d="M42.3456 78.5368V75.4253H44.1916V75.6222H42.9379V76.8235H44.1225V77.0303H42.9379V78.3301H44.2114V78.527H42.3456V78.5368Z" fill="white"></path>
  <path d="M44.8235 78.5368V75.4253H46.1661C46.7288 75.4253 47.0545 75.8389 47.0545 76.341C47.0545 76.8432 46.709 77.0204 46.245 77.0795L47.0743 78.5368H46.4326L45.5836 76.9417H45.6231C46.1463 76.9417 46.482 76.7447 46.482 76.2721C46.482 75.9275 46.3141 75.573 45.7416 75.573H45.4257V78.527H44.8432L44.8235 78.5368Z" fill="white"></path>
  <path d="M47.6172 78.5368V75.4253H48.1404L49.7693 77.562V75.4253H50.0161V78.5368H49.7594L47.864 76.0555V78.5368H47.6172Z" fill="white"></path>
  <path d="M55.0607 76.1047C54.8336 75.8093 54.577 75.5434 54.1623 75.5434C53.4022 75.5434 53.0172 76.1047 53.0172 77.0007C53.0172 77.6999 53.3726 78.3793 54.0932 78.3793C54.5572 78.3793 54.9521 78.1036 55.1298 77.6999L55.3371 77.7983C55.0508 78.3793 54.577 78.6254 53.9846 78.6254C53.106 78.6254 52.3953 77.8869 52.3953 77.0204C52.3953 76.0259 53.1258 75.3367 54.0439 75.3367C54.5375 75.3367 54.9817 75.5927 55.2483 75.9767L55.0706 76.1047H55.0607Z" fill="white"></path>
  <path d="M57.9927 78.537H57.3905L57.0548 77.7296H55.9788L55.6629 78.537H55.3865L56.6599 75.3467H56.6698L57.9828 78.537H57.9927ZM56.5217 76.3806L56.0676 77.5228H56.9759L56.5217 76.3806Z" fill="white"></path>
  <path d="M58.4369 78.5368V75.4253H59.0193V78.2907H60.2731V78.5368H58.4369Z" fill="white"></path>
  <path d="M60.7371 78.5368V75.4253H61.3195V78.5368H60.7371Z" fill="white"></path>
  <path d="M62.1685 78.5368V75.4253H63.9553V75.6222H62.7509V76.8235H63.8467V77.0303H62.7509V78.5368H62.1685Z" fill="white"></path>
  <path d="M65.7618 75.3367C66.67 75.3367 67.3117 76.0653 67.3117 76.9811C67.3117 77.8968 66.67 78.6254 65.7618 78.6254C64.8536 78.6254 64.2218 77.8968 64.2218 76.9811C64.2218 76.0653 64.8635 75.3367 65.7618 75.3367ZM65.7618 78.4187C66.5121 78.4187 66.6799 77.5817 66.6799 76.9811C66.6799 76.3804 66.5121 75.5434 65.7618 75.5434C65.0116 75.5434 64.8437 76.3804 64.8437 76.9811C64.8437 77.5817 65.0116 78.4187 65.7618 78.4187Z" fill="white"></path>
  <path d="M67.8547 78.5368V75.4253H69.1973C69.76 75.4253 70.0858 75.8389 70.0858 76.341C70.0858 76.8432 69.7403 77.0204 69.2763 77.0795L70.1055 78.5368H69.4639L68.6149 76.9417H68.6544C69.1776 76.9417 69.5132 76.7447 69.5132 76.2721C69.5132 75.9275 69.3454 75.573 68.7728 75.573H68.4569V78.527H67.8745L67.8547 78.5368Z" fill="white"></path>
  <path d="M70.6385 78.5368V75.4253H71.1618L72.7906 77.562V75.4253H73.0374V78.5368H72.7808L70.8853 76.0555V78.5368H70.6385Z" fill="white"></path>
  <path d="M73.8766 78.5368V75.4253H74.459V78.5368H73.8766Z" fill="white"></path>
  <path d="M77.5687 78.537H76.9665L76.6309 77.7296H75.5548L75.2389 78.537H74.9625L76.236 75.3467L77.549 78.537H77.5687ZM76.0978 76.3806L75.6437 77.5228H76.5519L76.0978 76.3806Z" fill="white"></path>
</svg>
