<?xml version="1.0" encoding="UTF-8"?>
<svg xmlns="http://www.w3.org/2000/svg" width="68" height="78" viewBox="0 0 68 78" fill="none">
  <g clip-path="url(#clip0_0_265)">
    <path d="M62.44 0.04L0 0V72.15C0 74.82 2.23 77.14 5.63 77.14L67.85 77.17V5.68C67.85 1.89 65.62 0.04 62.44 0.04Z" fill="#006C7A"></path>
    <path d="M25.58 33.79C25.36 33.54 25.12 33.22 24.88 32.84V32.83C25.68 32.01 26.36 31.12 27.28 30.32C30.12 27.84 32.22 27.24 32.22 27.24V36.42C32.22 36.42 28.23 36.69 25.59 33.8L25.58 33.79Z" fill="#BDC9CE"></path>
    <path d="M25.27 34.81L24.74 37.81C24.74 37.81 22.66 37.93 20.63 36.49C21.4 35.96 22.29 35.32 23.08 34.65C23.49 34.3 23.88 33.96 24.24 33.62C24.46 33.99 24.89 34.44 25.27 34.8V34.81Z" fill="#BDC9CE"></path>
    <path d="M32.09 16.29H21.53C21.53 16.29 23.91 14.21 25.06 13.57C25.74 13.2 26.67 12.53 27.95 12.53C27.98 12.53 29.58 12.53 29.61 12.53C31.09 12.53 32.09 14.1 32.09 15.06V16.29Z" fill="#BDC9CE"></path>
    <path d="M61.9901 24.91V40.9L59.9601 38.76V24.91H61.9901Z" fill="#BDC9CE"></path>
    <path d="M61.9901 4.44V18.68H59.9601V4.49L61.9901 4.44Z" fill="#E9EDEF"></path>
    <path d="M52.2001 18.1599L56.4701 21.7199C56.3701 23.4599 57.1301 25.0999 58.6401 26.2099C59.6501 26.9499 60.7701 27.2699 61.9201 27.2299C61.9201 25.6499 61.9301 22.1499 61.9301 22.1499L53.6701 16.0499L52.1901 18.1599H52.2001Z" fill="#BDC9CE"></path>
    <path d="M61.9801 16.6899C61.2301 16.6599 60.5401 16.7699 59.8401 17.0499L55.1901 14.0699L53.6801 16.0499L61.9701 22.1999C61.9701 22.1999 61.9801 21.5399 61.9801 16.6899Z" fill="#FFF8E8"></path>
    <path d="M57.51 18.97C55.81 21.29 56.31 24.56 58.64 26.26C59.65 27 60.84 27.32 62 27.26C62 24.81 61.97 22.18 61.97 22.18L57.57 18.89C57.57 18.89 57.53 18.94 57.51 18.97Z" fill="#E9EDEF"></path>
    <path d="M61.9801 2.59998C60.8601 2.59998 59.9501 3.50998 59.9501 4.62998C59.9501 5.74998 60.8601 6.65998 61.9801 6.65998" fill="#FFF8E8"></path>
    <path d="M61.98 36.77C60.84 36.77 59.92 37.69 59.92 38.83C59.92 39.97 60.84 40.89 61.98 40.89" fill="#E9EDEF"></path>
    <path d="M32.14 36.36V30.73C32.14 30.73 30.77 31.31 30.77 33.86C30.77 35.66 32.14 36.36 32.14 36.36Z" fill="#E9EDEF"></path>
    <path d="M24.72 37.7799C24.74 37.6599 25.02 36.0899 25.27 34.7799C25.16 34.6999 24.81 34.3999 24.56 34.0699C24.32 34.4199 24.11 34.8599 23.97 35.5699C23.69 37.0599 24.72 37.7799 24.72 37.7799Z" fill="#E9EDEF"></path>
    <path d="M5.2301 19.01C5.7001 18.58 9.7501 14.85 13.4201 11.18C16.6201 7.98001 19.1901 7.77 22.4701 7.77H43.9501C51.6101 7.77 53.2701 3.19001 53.2701 3.19001C53.2901 3.08001 53.3101 3.03001 53.2901 2.97001H22.1201C17.9301 2.97001 11.3501 2.67001 4.4801 10.39V19.92C4.7701 19.45 5.2001 19.05 5.2401 19.02L5.2301 19.01Z" fill="#FFF8E8"></path>
    <path d="M21.5001 34.41C21.5001 34.41 21.4701 34.44 21.4501 34.45C21.4701 34.44 21.4801 34.42 21.5001 34.41Z" fill="#FCF7F5"></path>
    <path d="M10.2101 17.28C7.1601 17.28 5.4401 18.49 4.4801 19.92V32.84C8.9301 32.07 11.9401 30.24 14.1101 27.29C16.2601 24.38 20.7101 20.37 24.8201 20.37H35.9401C42.3001 20.37 45.5501 25.79 45.5501 25.79C45.5501 25.79 44.4501 17.28 35.4401 17.28H18.7201C18.7201 17.28 12.5001 17.28 10.2201 17.28H10.2101Z" fill="#FFF8E8"></path>
    <path d="M5.22004 18.97L5.17004 19.01C5.17004 19.01 5.19004 19 5.22004 18.97Z" fill="#F0BDB1"></path>
    <path d="M43.9401 7.77H22.4601C19.1901 7.77 16.6201 7.98 13.4101 11.18C9.74008 14.85 5.69008 18.54 5.21008 18.97C5.51008 18.7 7.35008 17.3 9.57008 17.28C11.9401 17.26 18.3301 17.28 18.7201 17.28C19.0901 16.89 20.8401 15.07 21.9101 14.18C23.1101 13.18 24.9101 11.18 31.2201 11.18H45.7401C48.7901 11.18 51.6301 8.76 52.8001 6.05C53.0901 5.22 53.2501 4.27 53.2501 3.19C53.2501 3.19 51.5901 7.77 43.9301 7.77H43.9401Z" fill="#BDC9CE"></path>
    <path d="M21.4501 34.45C21.4501 34.45 21.4501 34.4499 21.4301 34.4599C21.4301 34.4599 21.4401 34.46 21.4501 34.45Z" fill="#F0BDB1"></path>
    <path d="M35.89 20.37H24.77C20.67 20.37 16.21 24.38 14.06 27.29C11.89 30.23 8.88004 32.07 4.43004 32.84V40.46C4.98004 40.45 5.69004 40.42 6.51004 40.35C7.51004 40.28 8.47004 40.16 9.38004 39.99C9.46004 39.98 10.53 39.77 10.54 39.77C13.8 39.08 16.39 37.92 18.55 36.55C19.59 35.89 21 34.84 22.03 33.92C25.05 31.21 27.25 28.45 29.85 27C29.76 27.04 30.71 26.45 31.92 26.18C32.56 26.04 32.86 26.01 33.37 25.99C40.06 25.8 45.51 25.78 45.51 25.78C45.51 25.78 42.26 20.36 35.9 20.36L35.89 20.37Z" fill="#BDC9CE"></path>
    <path d="M36.3101 25.9C36.6901 25.9 45.4601 25.77 45.4601 25.77C45.4601 25.77 44.6001 23.64 40.5201 23.64C37.6401 23.64 36.3101 25.9 36.3101 25.9Z" fill="#E9EDEF"></path>
    <path d="M44.4 3.06998C44.78 3.06998 53.31 3.03998 53.31 3.03998C53.31 3.03998 52.05 5.26998 49.46 5.26998C45.63 5.26998 44.4 3.05998 44.4 3.05998V3.06998Z" fill="#BDC9CE"></path>
    <path d="M4.54004 55.68V43.88H16.26C16.28 43.97 16.45 45.58 15.36 45.58H6.41004V48.74H15.64C15.64 48.74 15.9 50.44 14.67 50.44H6.41004V55.68H4.54004Z" fill="#FCF7F5"></path>
    <path d="M20.36 43.89V53.99H28.68C30.14 53.99 30.27 55.69 30.27 55.69H18.52V43.89H20.36Z" fill="#FCF7F5"></path>
    <path d="M44.7201 55.68H32.8501V43.88H44.7201C44.7201 43.88 45.0801 45.54 43.7201 45.54H34.3701V49.06H43.2501V50.79H34.3701V53.97H43.2001C44.9401 53.97 44.7201 55.67 44.7201 55.67V55.68Z" fill="#FCF7F5"></path>
    <path d="M61.5801 43.89H47.1901H48.1101C48.5901 43.89 49.4101 44.01 50.0001 44.54C50.5501 45.04 62.2301 55.68 62.2301 55.68H61.3901C60.9401 55.68 60.1001 55.7 59.5801 55.19C59.2401 54.84 47.1801 43.88 47.1801 43.88L61.5801 43.89Z" fill="#FCF7F5"></path>
    <path d="M47.8401 43.89L55.3301 48.2C56.6001 47.08 58.8701 45.03 59.4301 44.54C60.0201 44.01 60.8401 43.89 61.3201 43.89H62.2401L56.5801 49.11L54.3701 51.05C52.7601 52.64 50.1901 54.85 49.8401 55.2C49.3301 55.71 48.4801 55.69 48.0401 55.69H47.2001L53.2201 50.23" fill="#FCF7F5"></path>
    <path d="M56.01 72.27V61.95H53.44C52.74 61.95 52.48 61.29 52.48 60.92V59.36H61.34C61.96 59.36 62.54 59.79 62.54 60.52V61.94H58.95V72.26H56.01V72.27Z" fill="#FCF7F5"></path>
    <path d="M27.4 71.03C27.4 70.33 26.74 69.69 25.81 69.69H22.36V60.77C22.36 59.49 21.51 59.37 20.91 59.37H19.37V70.24C19.37 71.58 19.85 72.27 21.45 72.27H27.4V71.03Z" fill="#FCF7F5"></path>
    <path d="M37.2401 69.69H32.6901V66.99H37.6901V64.51H32.6901V61.95H37.2101C38.3201 61.95 38.3701 61.44 38.3701 60.77V59.37H29.7101V70.55C29.7101 71.33 30.0301 72.28 31.0001 72.28H38.3701V70.81C38.3701 70.11 37.8601 69.69 37.2401 69.69Z" fill="#FCF7F5"></path>
    <path d="M8.03003 61.77C8.03003 61.77 8.03003 61.74 8.05003 61.73L8.03003 61.77Z" fill="#FCF7F5"></path>
    <path d="M12.33 59.39H9.93998C8.79998 59.59 8.41998 59.99 8.05998 61.02L3.97998 72.3H7.15998L8.00998 69.6H12.9L13.59 71.58C13.59 71.58 13.7 72.3 14.8 72.3H17.03L12.32 59.39H12.33ZM8.84998 67.13L10.41 62.63H10.5L12.03 67.13H8.84998Z" fill="#FCF7F5"></path>
    <path d="M49.74 72.23C49.84 72.23 51.69 72.23 51.69 72.23C51.27 71.79 51.1 71.35 50.97 70.85L50.31 68.44C49.98 67.25 49.35 66.75 48.16 66.55V66.51C49.83 66.33 50.99 65.26 50.99 63.27C50.99 60.38 49.19 59.32 46.3 59.32H41.22V72.23H43.26C43.64 72.23 44.2 71.89 44.2 71.27V67.67H45.47C46.46 67.67 46.96 67.87 47.22 68.96C47.22 68.96 47.74 71.02 47.75 71.09C47.81 71.25 48.21 72.22 49.74 72.22V72.23ZM46.09 65.23H44.18V61.86H46.09C47.32 61.86 47.93 62.45 47.93 63.55C47.93 64.78 47.27 65.24 46.09 65.24V65.23Z" fill="#FCF7F5"></path>
  </g>
  <defs>
    <clipPath id="clip0_0_265">
      <rect width="67.85" height="77.17" fill="white"></rect>
    </clipPath>
  </defs>
</svg>
