<?xml version="1.0" encoding="UTF-8"?>
<svg xmlns="http://www.w3.org/2000/svg" width="1680" height="349" viewBox="0 0 1680 349" fill="none">
  <rect width="1680" height="1329" fill="#00383F"></rect>
  <path d="M834.876 0C822.076 5.1445 811.778 11.4995 811.667 18.9105C811.364 39.1797 887.461 47.69 887.621 63.7658C887.881 89.5007 691.992 101.63 690.967 130.163C690.188 151.865 803.055 156.984 808.182 186.659C813.359 216.612 588.75 340.401 145 414.685V957C448.961 838.584 662.129 694.631 797.711 588.017C842.469 552.827 1156.75 305.705 1107.85 207.237C1074.37 139.834 882.63 162.493 878.546 126.544C876.063 104.687 957.683 84.9861 954.248 62.0242C950.331 35.82 840.158 35.2642 839.231 14.7233C838.947 8.53505 848.029 0 855.386 0L834.876 0Z" fill="url(#paint0_linear_61_555)"></path>
  <defs>
    <linearGradient id="paint0_linear_61_555" x1="503.974" y1="1021.48" x2="692.718" y2="-29.219" gradientUnits="userSpaceOnUse">
      <stop stop-color="#F6441E"></stop>
      <stop offset="0.67" stop-color="#F86D2A"></stop>
      <stop offset="1" stop-color="#FEF252"></stop>
    </linearGradient>
  </defs>
</svg>
