<?xml version="1.0" encoding="UTF-8"?>
<svg xmlns="http://www.w3.org/2000/svg" width="124" height="124" viewBox="0 0 124 124" fill="none">
  <g clip-path="url(#clip0_20_2665)">
    <path d="M61.79 123.58C95.9157 123.58 123.58 95.9157 123.58 61.79C123.58 27.6643 95.9157 0 61.79 0C27.6643 0 0 27.6643 0 61.79C0 95.9157 27.6643 123.58 61.79 123.58Z" fill="url(#paint0_linear_20_2665)"></path>
    <path d="M92.7499 56.8701H30.8299C27.2099 56.8701 24.6799 60.1501 25.4699 63.5801L34.6099 99.4601C35.2399 101.8 37.4499 103.52 39.9699 103.52H83.6099C86.1299 103.52 88.3399 101.8 88.9699 99.4601L98.1099 63.5801C98.8899 60.1501 96.3699 56.8701 92.7499 56.8701ZM77.4699 71.3801C76.6799 72.0101 75.7299 72.4701 74.6299 72.4701H50.9999C48.7899 72.4701 47.0599 70.7601 47.0599 68.5701C47.0599 67.4801 47.3699 66.3901 48.1599 65.7701C48.9499 65.1401 49.8899 64.6701 50.9999 64.6701H74.6299C76.8399 64.6701 78.5699 66.3901 78.5699 68.5701C78.5699 69.5101 78.2499 70.7601 77.4699 71.3801Z" fill="white"></path>
    <path d="M85.89 33.32C83.94 31.52 81.28 30.41 78.49 30.27H38.27C36.32 30.27 34.78 31.79 34.78 33.73C34.78 35.67 36.32 37.18 38.27 37.18H78.49C80.45 37.18 81.98 38.7 81.98 40.64C81.98 41.61 81.71 42.58 81 43.12C80.3 43.67 79.47 44.09 78.49 44.09H38.27C36.32 44.09 34.78 45.61 34.78 47.55C34.78 48.52 35.06 49.35 35.76 50.04C36.46 50.59 37.3 51.01 38.27 51.01H78.49C84.22 51.01 88.97 46.31 88.97 40.64C88.97 37.73 87.85 35.25 85.89 33.31V33.32Z" fill="white"></path>
    <path d="M81.98 20.0601H38.26C36.47 20.0601 34.96 21.5601 34.96 23.3401C34.96 25.1201 36.47 26.6201 38.26 26.6201H81.98C83.54 26.6201 85.28 25.2201 85.28 23.3401C85.28 21.5601 83.77 20.0601 81.98 20.0601Z" fill="white"></path>
  </g>
  <defs>
    <linearGradient id="paint0_linear_20_2665" x1="13.89" y1="114.04" x2="113.28" y2="5.62" gradientUnits="userSpaceOnUse">
      <stop stop-color="#F6441E"></stop>
      <stop offset="1" stop-color="#FEF252"></stop>
    </linearGradient>
    <clipPath id="clip0_20_2665">
      <rect width="123.58" height="123.58" fill="white"></rect>
    </clipPath>
  </defs>
</svg>
