<?xml version="1.0" encoding="UTF-8"?>
<svg xmlns="http://www.w3.org/2000/svg" width="124" height="124" viewBox="0 0 124 124" fill="none">
  <g clip-path="url(#clip0_20_2612)">
    <path d="M61.79 123.58C95.9157 123.58 123.58 95.9157 123.58 61.79C123.58 27.6643 95.9157 0 61.79 0C27.6643 0 0 27.6643 0 61.79C0 95.9157 27.6643 123.58 61.79 123.58Z" fill="url(#paint0_linear_20_2612)"></path>
    <path d="M66.29 69.3899C72.82 72.2199 78.12 77.4699 80.98 83.9299C82.41 80.6999 84.45 77.8699 87.1 75.2399C89.75 72.6099 92.61 70.5899 95.87 69.1799C92.61 67.7699 89.75 65.7499 87.1 63.1199C84.45 60.4899 82.41 57.6699 80.98 54.4299C79.55 57.6599 77.51 60.4899 74.86 63.1199C72.41 65.7499 69.56 67.7699 66.29 69.3799V69.3899Z" fill="white"></path>
    <path d="M34.1899 80.1699C39.0399 82.6899 42.9699 86.5799 45.2899 91.1599C46.4499 88.8699 48.0599 86.5799 49.9099 84.7499C51.7599 82.9199 54.0699 81.3199 56.3799 80.1699C54.0699 79.0299 51.7599 77.4199 49.9099 75.5899C48.0599 73.7599 46.4399 71.4699 45.2899 69.1799C44.1299 71.4699 42.5199 73.7599 40.6699 75.5899C38.8199 77.4199 36.5099 79.0199 34.1999 80.1699H34.1899Z" fill="white"></path>
    <path d="M27.4399 50.04C23.6599 50.04 20.6899 52.98 20.6899 56.72C20.6899 60.46 23.6599 63.4 27.4399 63.4C31.2199 63.4 34.1899 60.46 34.1899 56.72C34.1899 52.98 31.2199 50.04 27.4399 50.04Z" fill="white"></path>
    <path d="M82.44 93.9202C79.86 93.9202 77.77 95.9902 77.77 98.5402C77.77 101.09 79.86 103.16 82.44 103.16C85.02 103.16 87.11 101.09 87.11 98.5402C87.11 95.9902 85.02 93.9202 82.44 93.9202Z" fill="white"></path>
    <path d="M91.07 35.05C88.41 35.05 86.26 37.1801 86.26 39.8101C86.26 42.4401 88.41 44.57 91.07 44.57C93.73 44.57 95.88 42.4401 95.88 39.8101C95.88 37.1801 93.73 35.05 91.07 35.05Z" fill="white"></path>
    <path d="M37.46 41.3499C46.6 45.3099 54.02 52.6599 58.02 61.7099C60.02 57.1799 62.88 53.2299 66.59 49.5499C70.3 45.8699 74.3 43.0399 78.87 41.0699C74.3 39.0899 70.3 36.2599 66.59 32.5899C62.88 28.9099 60.02 24.9499 58.02 20.4299C56.02 24.9599 53.17 28.9099 49.45 32.5899C46.02 36.2699 42.02 39.0899 37.46 41.3599V41.3499Z" fill="white"></path>
  </g>
  <defs>
    <linearGradient id="paint0_linear_20_2612" x1="13.89" y1="114.04" x2="113.28" y2="5.62" gradientUnits="userSpaceOnUse">
      <stop stop-color="#F6441E"></stop>
      <stop offset="1" stop-color="#FEF252"></stop>
    </linearGradient>
    <clipPath id="clip0_20_2612">
      <rect width="123.58" height="123.58" fill="white"></rect>
    </clipPath>
  </defs>
</svg>
