<?xml version="1.0" encoding="UTF-8"?>
<svg xmlns="http://www.w3.org/2000/svg" width="124" height="124" viewBox="0 0 124 124" fill="none">
  <g clip-path="url(#clip0_20_2644)">
    <path d="M61.79 123.58C95.9157 123.58 123.58 95.9157 123.58 61.79C123.58 27.6643 95.9157 0 61.79 0C27.6643 0 0 27.6643 0 61.79C0 95.9157 27.6643 123.58 61.79 123.58Z" fill="url(#paint0_linear_20_2644)"></path>
    <path d="M61.79 11.5C89.57 11.5 112.09 34.02 112.09 61.8C112.09 89.58 89.57 112.1 61.79 112.1C34.01 112.1 11.5 89.57 11.5 61.79C11.5 34.01 34.01 11.5 61.79 11.5ZM61.79 7.5C31.85 7.5 7.5 31.85 7.5 61.79C7.5 91.73 31.86 116.09 61.8 116.09C91.74 116.09 116.1 91.73 116.1 61.79C116.1 31.85 91.73 7.5 61.79 7.5Z" fill="white"></path>
    <path d="M44.93 21.0701L42.55 15.3301" stroke="white" stroke-width="2" stroke-miterlimit="10"></path>
    <path d="M81.0399 108.26L78.6599 102.52" stroke="white" stroke-width="2" stroke-miterlimit="10"></path>
    <path d="M81.0399 15.3301L78.6599 21.0701" stroke="white" stroke-width="2" stroke-miterlimit="10"></path>
    <path d="M44.93 102.52L42.55 108.26" stroke="white" stroke-width="2" stroke-miterlimit="10"></path>
    <path d="M108.26 42.55L102.52 44.93" stroke="white" stroke-width="2" stroke-miterlimit="10"></path>
    <path d="M21.0701 78.6599L15.3301 81.0399" stroke="white" stroke-width="2" stroke-miterlimit="10"></path>
    <path d="M108.26 81.0399L102.52 78.6599" stroke="white" stroke-width="2" stroke-miterlimit="10"></path>
    <path d="M21.0701 44.93L15.3301 42.55" stroke="white" stroke-width="2" stroke-miterlimit="10"></path>
    <path d="M61.8 17.73V11.5" stroke="white" stroke-width="2" stroke-miterlimit="10"></path>
    <path d="M61.8 112.09V105.86" stroke="white" stroke-width="2" stroke-miterlimit="10"></path>
    <path d="M97.36 26.23L92.95 30.64" stroke="white" stroke-width="2" stroke-miterlimit="10"></path>
    <path d="M30.64 92.95L26.23 97.36" stroke="white" stroke-width="2" stroke-miterlimit="10"></path>
    <path d="M112.09 61.8H105.86" stroke="white" stroke-width="2" stroke-miterlimit="10"></path>
    <path d="M17.73 61.8H11.5" stroke="white" stroke-width="2" stroke-miterlimit="10"></path>
    <path d="M97.36 97.36L92.95 92.95" stroke="white" stroke-width="2" stroke-miterlimit="10"></path>
    <path d="M30.64 30.64L26.23 26.23" stroke="white" stroke-width="2" stroke-miterlimit="10"></path>
    <path d="M38.193 48.1H59.437V53.599L48.298 81H41.436L52.246 54.304H38.193V48.1ZM80.2911 63.892C83.2051 65.631 84.8501 68.498 84.8501 71.835C84.8501 77.898 80.3381 81.658 73.0531 81.658C65.7211 81.658 61.2561 77.898 61.2561 71.835C61.2561 68.498 62.9011 65.631 65.7681 63.892C63.7001 62.388 62.3371 60.132 62.3371 57.077C62.3371 50.732 67.2721 47.442 73.0531 47.442C78.8341 47.442 83.7221 50.732 83.7221 57.077C83.7221 60.132 82.4061 62.388 80.2911 63.892ZM73.0531 53.552C70.6091 53.552 68.8231 54.962 68.8231 57.406C68.8231 59.803 70.6091 61.307 73.0531 61.307C75.4971 61.307 77.2831 59.803 77.2831 57.406C77.2831 54.962 75.4971 53.552 73.0531 53.552ZM73.0531 75.548C76.1551 75.548 78.4111 73.95 78.4111 70.989C78.4111 68.075 76.1551 66.477 73.0531 66.477C69.9511 66.477 67.6951 68.075 67.6951 70.989C67.6951 73.95 69.9511 75.548 73.0531 75.548Z" fill="white"></path>
  </g>
  <defs>
    <linearGradient id="paint0_linear_20_2644" x1="13.89" y1="114.04" x2="113.28" y2="5.62" gradientUnits="userSpaceOnUse">
      <stop stop-color="#F6441E"></stop>
      <stop offset="1" stop-color="#FEF252"></stop>
    </linearGradient>
    <clipPath id="clip0_20_2644">
      <rect width="123.58" height="123.58" fill="white"></rect>
    </clipPath>
  </defs>
</svg>
