<?xml version="1.0" encoding="UTF-8"?>
<svg xmlns="http://www.w3.org/2000/svg" width="124" height="124" viewBox="0 0 124 124" fill="none">
  <g clip-path="url(#clip0_20_2390)">
    <path d="M123.59 61.79C123.59 75.79 118.93 88.7 111.09 99.06C110.64 99.66 110.18 100.24 109.7 100.82C107.05 104.07 104.07 107.05 100.82 109.69C100.24 110.17 99.66 110.63 99.06 111.08C88.7 118.92 75.79 123.58 61.8 123.58C27.67 123.58 0 95.92 0 61.79C0 47.79 4.66 34.88 12.51 24.52C12.96 23.92 13.42 23.34 13.89 22.76C16.54 19.51 19.52 16.54 22.77 13.89C23.35 13.42 23.94 12.96 24.54 12.51C34.9 4.65 47.8 0 61.8 0C95.92 0 123.59 27.66 123.59 61.79Z" fill="url(#paint0_linear_20_2390)"></path>
    <path d="M76.3601 94.5301V92.1201H47.2301V94.5301C46.5901 94.5301 46.0801 95.0501 46.0801 95.6801C46.0801 96.3101 46.6001 96.8301 47.2301 96.8301V99.0401C47.2301 100.48 48.0501 101.72 49.2601 102.33C49.4901 102.44 49.7301 102.54 49.9901 102.6C50.0501 102.62 50.1101 102.63 50.1701 102.64C50.2001 102.64 50.2301 102.65 50.2601 102.66C50.3301 102.67 50.4001 102.68 50.4801 102.69C50.5301 102.69 50.5801 102.7 50.6301 102.7C50.7201 102.7 50.8201 102.71 50.9201 102.71C50.9201 102.71 50.9401 102.8 50.9801 102.96C51.0101 103.06 51.0401 103.19 51.0801 103.34C51.0801 103.35 51.0801 103.37 51.0901 103.38C51.1101 103.45 51.1301 103.53 51.1601 103.62C51.1901 103.71 51.2101 103.8 51.2401 103.9C51.2401 103.91 51.2401 103.93 51.2501 103.94C51.2801 104.04 51.3101 104.14 51.3401 104.24C51.4401 104.56 51.5601 104.92 51.7001 105.29C52.7001 107.96 55.2601 109.73 58.1101 109.73H59.9201H65.4801C67.8401 109.73 69.9901 108.52 71.2401 106.59C71.5001 106.19 71.7201 105.75 71.9001 105.29C72.1601 104.6 72.3501 103.97 72.4801 103.5C72.6201 103 72.6901 102.69 72.6901 102.69C74.7201 102.69 76.3601 101.05 76.3601 99.0201V96.8101C77.0001 96.8101 77.5101 96.2901 77.5101 95.6601C77.5101 95.0301 76.9901 94.5101 76.3601 94.5101V94.5301Z" fill="white"></path>
    <path d="M29.28 42.4001L75.52 88.6401H47.22C46.34 88.6401 45.55 88.2901 44.97 87.7101C44.83 87.5701 44.7 87.4001 44.58 87.2301C44.53 87.1501 44.47 87.0601 44.42 86.9701C44.32 86.7901 44.25 86.6001 44.18 86.4001C44.09 86.1001 44.04 85.7801 44.04 85.4501V85.1101C44 82.1401 43.43 79.2201 42.38 76.4901C41.3 73.6501 39.69 71.0101 37.6 68.7301C32.26 62.9001 29.01 55.1301 29.01 46.6101C29.01 45.1801 29.1 43.7801 29.28 42.4001Z" fill="white"></path>
    <path d="M94.58 46.6101C94.58 55.1301 91.32 62.9001 85.98 68.7301C85.31 69.4601 84.7 70.2201 84.1399 71.0201C83.8299 71.4301 83.5499 71.8601 83.29 72.2901C83.01 72.7301 82.75 73.1701 82.51 73.6301C80.57 77.2301 79.54 81.3001 79.54 85.4501C79.54 86.2701 79.2299 87.0301 78.72 87.5901L29.95 38.8201C31.02 34.3901 33 30.3201 35.68 26.8001C35.97 26.4001 36.2899 26.0101 36.6199 25.6201C36.9299 25.2301 37.2599 24.8501 37.5999 24.4801C40.7599 21.0301 44.65 18.2501 49.02 16.4001H49.0299L49.1899 16.3301C49.5899 16.1601 50 16.0001 50.41 15.8501C50.45 15.8401 50.4799 15.8201 50.52 15.8101C50.77 15.7101 51.0199 15.6301 51.2799 15.5401C52.5399 15.1101 53.8399 14.7601 55.1699 14.4901C55.3399 14.4501 55.5099 14.4201 55.6699 14.3901C57.6499 14.0201 59.7 13.8201 61.79 13.8201C79.9 13.8201 94.58 28.5001 94.58 46.6101Z" fill="white"></path>
    <path d="M109.7 100.82C107.05 104.07 104.07 107.05 100.82 109.69L78.7199 87.5899L29.9499 38.8199L13.8899 22.7599C16.5399 19.5099 19.5199 16.5399 22.7699 13.8899L35.6799 26.7999L82.5099 73.6299L109.7 100.82Z" fill="white"></path>
  </g>
  <defs>
    <linearGradient id="paint0_linear_20_2390" x1="13.9" y1="114.04" x2="113.29" y2="5.62001" gradientUnits="userSpaceOnUse">
      <stop stop-color="#F6441E"></stop>
      <stop offset="1" stop-color="#FEF252"></stop>
    </linearGradient>
    <clipPath id="clip0_20_2390">
      <rect width="123.59" height="123.58" fill="white"></rect>
    </clipPath>
  </defs>
</svg>
