<?xml version="1.0" encoding="UTF-8"?>
<svg xmlns="http://www.w3.org/2000/svg" width="106" height="106" viewBox="0 0 106 106" fill="none">
  <path d="M86.9522 0H18.7765C8.40651 0 0 8.38495 0 18.7283V86.7292C0 97.0725 8.40651 105.457 18.7765 105.457H86.9522C97.3221 105.457 105.729 97.0725 105.729 86.7292V18.7283C105.729 8.38495 97.3221 0 86.9522 0Z" fill="#FF6600"></path>
  <path d="M57.0106 78.1723C57.4351 79.029 58.3038 79.5804 59.6957 79.5804H61.6603L58.0175 74.4404C57.2969 75.1002 56.2504 76.6658 57.0007 78.1723H57.0106Z" fill="white"></path>
  <path d="M24.3541 20.3433V85.1144H81.3647V20.3433H24.3541ZM64.9772 82.6528H58.6888C56.9908 82.6528 54.7894 82.0127 53.7528 79.6299C52.3707 76.4592 54.3155 73.3772 56.1319 71.9199C54.5129 69.6848 54.5623 67.8828 55.0658 66.5831C55.7371 64.8107 57.7411 64.1805 59.2614 64.1805C60.7816 64.1805 63.5754 64.6334 63.5754 68.5229V69.2909H60.1301V68.1782C60.1301 67.3117 59.4785 67.1542 59.0442 67.1542C57.8595 67.1542 57.6621 68.5622 58.5111 69.8029L61.9366 74.6081V72.1563H64.9871V82.6626L64.9772 82.6528ZM78.8967 82.6626H77.485V78.655H72.5687V73.2591H77.485V69.281H72.5687V64.1706H77.485V60.1926H67.7808V82.6528H66.379V23.2382L51.6599 74.4899V70.3445H46.1218V74.2733H47.3459V78.0347C47.3459 78.7043 46.7536 79.1474 46.2205 79.1474C45.6381 79.1474 45.105 78.7043 45.105 78.0347V65.047C45.105 64.21 45.4702 63.7965 46.2106 63.7965C46.951 63.7965 47.3459 64.2002 47.3459 65.047V66.908H51.6599V65.2636C51.6599 62.9497 50.1594 59.7692 46.102 59.7692C42.0447 59.7692 40.5737 62.3392 40.5737 65.0765V77.7491C40.5737 81.8257 43.8414 82.6725 43.8414 82.6725H32.7058V74.7065H33.9892C37.5628 74.7065 39.5569 72.5501 39.5569 67.5776C39.5569 61.2856 36.0228 60.2024 32.7058 60.2024H28.2141V82.6626H26.8122V22.8049H78.8967V82.6626ZM32.765 70.8073V64.1706C34.3347 64.1706 34.6703 65.1061 34.9072 65.9627C35.0455 66.4649 35.1146 67.5973 34.9566 68.769C34.7987 69.9408 34.2557 70.8073 32.765 70.8073Z" fill="white"></path>
  <path d="M84.6915 24.587C83.5168 24.587 82.5592 23.6319 82.5592 22.4601C82.5592 21.2884 83.5168 20.3333 84.6915 20.3333C85.8663 20.3333 86.8239 21.2884 86.8239 22.4601C86.8239 23.6319 85.8663 24.587 84.6915 24.587ZM84.6915 20.6483C83.7044 20.6483 82.9047 21.4656 82.9047 22.4601C82.9047 23.4546 83.7044 24.2719 84.6915 24.2719C85.6787 24.2719 86.4882 23.4546 86.4882 22.4601C86.4882 21.4656 85.6787 20.6483 84.6915 20.6483ZM85.2345 23.7008L84.6619 22.6866H84.2868V23.7008H83.9413V21.2194H84.7903C85.2246 21.2194 85.5702 21.5444 85.5702 21.9678C85.5702 22.3321 85.3431 22.5586 85.0371 22.6472L85.6294 23.7008H85.2246H85.2345ZM84.7508 21.5247H84.2868V22.3912H84.7508C85.0272 22.3912 85.2246 22.214 85.2246 21.9579C85.2246 21.7019 85.0272 21.5247 84.7508 21.5247Z" fill="white"></path>
</svg>
