<?xml version="1.0" encoding="UTF-8"?>
<svg xmlns="http://www.w3.org/2000/svg" width="199" height="73" viewBox="0 0 199 73" fill="none">
  <g clip-path="url(#clip0_0_145)">
    <path d="M76.75 16.16V22.71H72.2V3.10999H79.12C80.5 3.10999 81.69 3.26999 82.68 3.59999C83.67 3.92999 84.49 4.37999 85.13 4.94999C85.77 5.51999 86.24 6.19999 86.55 6.97999C86.85 7.75999 87.01 8.59999 87.01 9.50999C87.01 10.49 86.85 11.38 86.54 12.2C86.23 13.02 85.75 13.72 85.1 14.3C84.45 14.88 83.64 15.34 82.64 15.67C81.65 16 80.48 16.16 79.12 16.16H76.75ZM76.75 12.73H79.12C80.3 12.73 81.16 12.45 81.68 11.88C82.2 11.31 82.46 10.53 82.46 9.50999C82.46 9.05999 82.39 8.64999 82.26 8.28999C82.13 7.92999 81.92 7.60999 81.65 7.33999C81.38 7.06999 81.03 6.86999 80.61 6.72999C80.19 6.58999 79.7 6.50999 79.12 6.50999H76.75V12.73Z" fill="white"></path>
    <path d="M108.05 12.9C108.05 14.32 107.81 15.64 107.32 16.86C106.83 18.08 106.14 19.14 105.25 20.04C104.36 20.94 103.29 21.65 102.04 22.16C100.79 22.67 99.4 22.93 97.88 22.93C96.36 22.93 94.96 22.67 93.71 22.16C92.45 21.65 91.38 20.94 90.49 20.04C89.6 19.14 88.91 18.08 88.42 16.86C87.93 15.64 87.69 14.32 87.69 12.9C87.69 11.48 87.93 10.16 88.42 8.94C88.91 7.72 89.6 6.66001 90.49 5.76C91.38 4.86001 92.46 4.16 93.71 3.65C94.97 3.14 96.36 2.88 97.88 2.88C99.4 2.88 100.79 3.14 102.04 3.65C103.29 4.17 104.36 4.87 105.25 5.77C106.14 6.67 106.83 7.73 107.32 8.95C107.81 10.17 108.05 11.49 108.05 12.89V12.9ZM103.4 12.9C103.4 11.93 103.27 11.06 103.02 10.28C102.77 9.5 102.41 8.85001 101.94 8.31001C101.47 7.77001 100.89 7.36 100.21 7.07C99.53 6.78 98.75 6.64 97.88 6.64C97.01 6.64 96.22 6.78 95.53 7.07C94.84 7.36 94.26 7.77001 93.79 8.31001C93.32 8.85001 92.96 9.51 92.71 10.28C92.46 11.06 92.33 11.93 92.33 12.9C92.33 13.87 92.46 14.75 92.71 15.53C92.96 16.31 93.32 16.96 93.79 17.5C94.26 18.04 94.84 18.45 95.53 18.73C96.22 19.01 97 19.15 97.88 19.15C98.76 19.15 99.53 19.01 100.21 18.73C100.89 18.45 101.47 18.04 101.94 17.5C102.41 16.96 102.77 16.3 103.02 15.53C103.27 14.75 103.4 13.88 103.4 12.9Z" fill="white"></path>
    <path d="M108.08 3.10997H111.9C112.29 3.10997 112.62 3.19997 112.89 3.37997C113.16 3.55997 113.33 3.79997 113.41 4.08997L116.1 14.32C116.19 14.65 116.28 15.01 116.37 15.38C116.46 15.76 116.53 16.15 116.57 16.56C116.66 16.14 116.76 15.74 116.87 15.37C116.98 15 117.08 14.65 117.18 14.31L120.36 4.07997C120.44 3.82997 120.61 3.59997 120.88 3.39997C121.14 3.19997 121.47 3.09997 121.84 3.09997H123.19C123.59 3.09997 123.91 3.18997 124.17 3.35997C124.43 3.52997 124.6 3.77997 124.7 4.07997L127.85 14.31C127.95 14.62 128.05 14.96 128.16 15.31C128.27 15.66 128.36 16.04 128.44 16.45C128.51 16.05 128.59 15.68 128.66 15.32C128.74 14.96 128.81 14.63 128.9 14.31L131.59 4.07997C131.66 3.81997 131.83 3.58997 132.1 3.38997C132.37 3.18997 132.69 3.08997 133.07 3.08997H136.65L130.59 22.7H126.47L122.78 10.55C122.72 10.36 122.65 10.16 122.59 9.92997C122.52 9.70997 122.46 9.46997 122.39 9.21997C122.33 9.46997 122.26 9.70997 122.2 9.92997C122.13 10.15 122.07 10.36 122 10.55L118.26 22.7H114.14L108.08 3.08997V3.10997Z" fill="white"></path>
    <path d="M150.34 3.10999V6.60999H142.29V11.19H148.45V14.55H142.29V19.22H150.34V22.72H137.72V3.10999H150.34Z" fill="white"></path>
    <path d="M156.8 15.46V22.71H152.25V3.10999H158.63C160.05 3.10999 161.26 3.25999 162.26 3.54999C163.26 3.83999 164.08 4.24999 164.71 4.76999C165.34 5.28999 165.8 5.90999 166.09 6.60999C166.38 7.31999 166.52 8.08999 166.52 8.91999C166.52 9.55999 166.43 10.16 166.26 10.72C166.09 11.28 165.84 11.81 165.5 12.29C165.16 12.77 164.75 13.2 164.26 13.58C163.77 13.96 163.21 14.27 162.57 14.51C162.87 14.66 163.16 14.85 163.42 15.08C163.68 15.3 163.92 15.58 164.11 15.9L168.28 22.72H164.16C163.4 22.72 162.85 22.43 162.52 21.86L159.26 16.17C159.12 15.92 158.95 15.74 158.76 15.63C158.57 15.52 158.3 15.47 157.95 15.47H156.79L156.8 15.46ZM156.8 12.33H158.63C159.25 12.33 159.78 12.25 160.21 12.09C160.64 11.93 161 11.72 161.28 11.44C161.56 11.16 161.76 10.84 161.89 10.46C162.02 10.08 162.08 9.68999 162.08 9.25999C162.08 8.39999 161.8 7.72999 161.24 7.23999C160.68 6.75999 159.81 6.50999 158.64 6.50999H156.81V12.32L156.8 12.33Z" fill="white"></path>
    <path d="M83.13 31.66C83 31.88 82.85 32.04 82.71 32.14C82.56 32.25 82.37 32.3 82.14 32.3C81.93 32.3 81.71 32.24 81.47 32.1C81.23 31.97 80.96 31.82 80.66 31.66C80.36 31.5 80.02 31.35 79.63 31.22C79.24 31.09 78.8 31.03 78.31 31.03C77.46 31.03 76.82 31.21 76.41 31.58C75.99 31.94 75.78 32.43 75.78 33.05C75.78 33.45 75.91 33.77 76.16 34.03C76.41 34.29 76.74 34.51 77.15 34.7C77.56 34.89 78.03 35.06 78.55 35.22C79.08 35.38 79.61 35.55 80.16 35.75C80.71 35.95 81.24 36.17 81.77 36.43C82.29 36.69 82.76 37.02 83.17 37.43C83.58 37.83 83.91 38.32 84.16 38.9C84.41 39.48 84.54 40.18 84.54 40.99C84.54 41.9 84.38 42.74 84.07 43.53C83.76 44.32 83.3 45.01 82.7 45.6C82.1 46.19 81.37 46.65 80.49 46.99C79.62 47.33 78.62 47.49 77.51 47.49C76.9 47.49 76.28 47.43 75.65 47.3C75.02 47.17 74.41 47 73.81 46.77C73.22 46.54 72.66 46.27 72.14 45.96C71.62 45.65 71.17 45.3 70.78 44.91L72.13 42.78C72.23 42.62 72.37 42.49 72.55 42.39C72.73 42.29 72.92 42.24 73.13 42.24C73.4 42.24 73.67 42.33 73.94 42.5C74.21 42.67 74.52 42.86 74.87 43.07C75.22 43.28 75.61 43.47 76.06 43.64C76.51 43.81 77.04 43.9 77.65 43.9C78.48 43.9 79.12 43.72 79.57 43.35C80.03 42.99 80.26 42.41 80.26 41.62C80.26 41.16 80.13 40.79 79.88 40.5C79.63 40.21 79.3 39.97 78.89 39.79C78.48 39.6 78.02 39.44 77.5 39.29C76.98 39.15 76.45 38.99 75.9 38.81C75.35 38.64 74.82 38.42 74.3 38.16C73.78 37.9 73.31 37.57 72.91 37.15C72.5 36.73 72.17 36.21 71.92 35.59C71.67 34.97 71.54 34.2 71.54 33.28C71.54 32.54 71.69 31.83 71.98 31.13C72.27 30.43 72.71 29.81 73.29 29.26C73.87 28.71 74.57 28.28 75.4 27.95C76.23 27.62 77.19 27.46 78.27 27.46C78.87 27.46 79.46 27.51 80.03 27.6C80.6 27.69 81.14 27.83 81.65 28.02C82.16 28.21 82.64 28.42 83.08 28.68C83.52 28.94 83.92 29.23 84.27 29.55L83.14 31.66H83.13Z" fill="white"></path>
    <path d="M104.36 47.29H100.83C100.43 47.29 100.11 47.2 99.85 47.01C99.59 46.83 99.42 46.59 99.32 46.3L98.16 42.88H90.7L89.54 46.3C89.45 46.55 89.28 46.78 89.01 46.98C88.75 47.18 88.43 47.28 88.05 47.28H84.5L92.09 27.67H96.75L104.34 47.28L104.36 47.29ZM91.77 39.79H97.13L95.33 34.42C95.21 34.08 95.08 33.68 94.92 33.22C94.76 32.76 94.61 32.26 94.46 31.72C94.32 32.27 94.17 32.77 94.02 33.24C93.87 33.71 93.72 34.11 93.59 34.45L91.79 39.79H91.77Z" fill="white"></path>
    <path d="M100.97 27.6801H104.63C105.03 27.6801 105.35 27.7701 105.6 27.9501C105.85 28.1301 106.03 28.3701 106.14 28.6601L109.93 39.1601C110.1 39.6201 110.27 40.1201 110.45 40.6501C110.63 41.1801 110.79 41.7501 110.94 42.3501C111.07 41.7601 111.21 41.1901 111.38 40.6501C111.55 40.1101 111.71 39.6101 111.87 39.1601L115.64 28.6601C115.73 28.4101 115.9 28.1801 116.16 27.9801C116.42 27.7801 116.74 27.6801 117.12 27.6801H120.81L112.95 47.2901H108.83L100.97 27.6801Z" fill="white"></path>
    <path d="M134.38 27.6801V31.1801H126.33V35.7601H132.49V39.1201H126.33V43.7901H134.38V47.2901H121.76V27.6801H134.38Z" fill="white"></path>
    <path d="M140.83 40.0401V47.2901H136.28V27.6801H142.66C144.08 27.6801 145.29 27.8301 146.29 28.1201C147.29 28.4101 148.11 28.8201 148.74 29.3401C149.37 29.8601 149.83 30.4801 150.12 31.1801C150.41 31.8901 150.55 32.6601 150.55 33.4901C150.55 34.1301 150.46 34.7301 150.29 35.2901C150.12 35.8601 149.87 36.3801 149.53 36.8601C149.19 37.3401 148.78 37.7701 148.29 38.1501C147.8 38.5301 147.24 38.8401 146.6 39.0801C146.91 39.2301 147.19 39.4201 147.45 39.6501C147.71 39.8701 147.95 40.1501 148.14 40.4701L152.31 47.2901H148.19C147.43 47.2901 146.88 47.0001 146.55 46.4301L143.29 40.7401C143.15 40.4901 142.98 40.3101 142.79 40.2001C142.6 40.0901 142.33 40.0401 141.98 40.0401H140.82H140.83ZM140.83 36.9001H142.66C143.28 36.9001 143.81 36.8201 144.24 36.6601C144.68 36.5001 145.03 36.2901 145.31 36.0101C145.59 35.7301 145.79 35.4101 145.92 35.0301C146.05 34.6601 146.11 34.2601 146.11 33.8301C146.11 32.9701 145.83 32.3001 145.27 31.8101C144.71 31.3301 143.84 31.0801 142.67 31.0801H140.84V36.8901L140.83 36.9001Z" fill="white"></path>
    <path d="M76.75 64.61V71.86H72.2V52.25H78.58C80 52.25 81.21 52.4 82.21 52.69C83.21 52.98 84.03 53.39 84.66 53.91C85.29 54.43 85.75 55.05 86.04 55.75C86.33 56.46 86.47 57.23 86.47 58.06C86.47 58.7 86.38 59.3 86.21 59.86C86.04 60.43 85.79 60.95 85.45 61.43C85.11 61.91 84.7 62.34 84.21 62.72C83.72 63.1 83.16 63.41 82.52 63.65C82.83 63.8 83.11 63.99 83.37 64.22C83.63 64.44 83.87 64.72 84.06 65.04L88.23 71.86H84.11C83.35 71.86 82.8 71.57 82.47 71L79.21 65.31C79.07 65.06 78.9 64.88 78.71 64.77C78.52 64.66 78.25 64.61 77.9 64.61H76.74H76.75ZM76.75 61.48H78.58C79.2 61.48 79.73 61.4 80.16 61.24C80.6 61.08 80.95 60.87 81.23 60.59C81.51 60.31 81.71 59.99 81.84 59.61C81.97 59.24 82.03 58.84 82.03 58.41C82.03 57.55 81.75 56.88 81.19 56.39C80.63 55.91 79.76 55.66 78.59 55.66H76.76V61.47L76.75 61.48Z" fill="white"></path>
    <path d="M102.05 52.26V55.76H94V60.34H100.16V63.7H94V68.37H102.05V71.87H89.43V52.26H102.05Z" fill="white"></path>
    <path d="M102.48 52.26H106.3C106.69 52.26 107.02 52.35 107.29 52.53C107.56 52.71 107.73 52.95 107.81 53.24L110.5 63.47C110.59 63.8 110.68 64.16 110.77 64.53C110.86 64.9 110.93 65.3 110.97 65.71C111.06 65.29 111.16 64.89 111.27 64.52C111.38 64.15 111.48 63.8 111.58 63.46L114.76 53.23C114.84 52.98 115.01 52.75 115.28 52.55C115.54 52.35 115.87 52.25 116.24 52.25H117.59C117.98 52.25 118.31 52.34 118.57 52.51C118.83 52.68 119 52.93 119.1 53.23L122.25 63.46C122.35 63.77 122.45 64.11 122.56 64.46C122.67 64.81 122.76 65.19 122.84 65.6C122.91 65.2 122.99 64.83 123.06 64.47C123.14 64.11 123.21 63.78 123.3 63.46L125.99 53.23C126.06 52.97 126.23 52.74 126.5 52.54C126.77 52.34 127.09 52.24 127.47 52.24H131.05L124.99 71.85H120.87L117.18 59.7C117.12 59.51 117.05 59.31 116.98 59.08C116.91 58.86 116.85 58.62 116.79 58.37C116.73 58.62 116.66 58.86 116.59 59.08C116.52 59.3 116.46 59.51 116.4 59.7L112.66 71.85H108.54L102.48 52.24V52.26Z" fill="white"></path>
    <path d="M148.48 71.87H144.95C144.55 71.87 144.23 71.78 143.97 71.59C143.71 71.41 143.54 71.17 143.44 70.88L142.28 67.46H134.82L133.66 70.88C133.57 71.13 133.4 71.36 133.13 71.56C132.87 71.76 132.55 71.86 132.17 71.86H128.62L136.21 52.25H140.87L148.46 71.86L148.48 71.87ZM135.88 64.37H141.24L139.44 59C139.32 58.66 139.19 58.26 139.03 57.8C138.87 57.34 138.72 56.84 138.57 56.3C138.43 56.85 138.28 57.35 138.13 57.82C137.98 58.29 137.83 58.69 137.7 59.03L135.9 64.37H135.88Z" fill="white"></path>
    <path d="M153.94 64.61V71.86H149.39V52.25H155.77C157.19 52.25 158.4 52.4 159.4 52.69C160.4 52.98 161.22 53.39 161.85 53.91C162.48 54.43 162.94 55.05 163.23 55.75C163.52 56.46 163.66 57.23 163.66 58.06C163.66 58.7 163.57 59.3 163.4 59.86C163.23 60.43 162.98 60.95 162.64 61.43C162.3 61.91 161.89 62.34 161.4 62.72C160.91 63.1 160.35 63.41 159.71 63.65C160.02 63.8 160.3 63.99 160.56 64.22C160.82 64.44 161.06 64.72 161.25 65.04L165.42 71.86H161.3C160.54 71.86 159.99 71.57 159.66 71L156.4 65.31C156.26 65.06 156.09 64.88 155.9 64.77C155.71 64.66 155.44 64.61 155.09 64.61H153.93H153.94ZM153.94 61.48H155.77C156.39 61.48 156.92 61.4 157.35 61.24C157.79 61.08 158.14 60.87 158.42 60.59C158.7 60.31 158.9 59.99 159.03 59.61C159.16 59.24 159.22 58.84 159.22 58.41C159.22 57.55 158.94 56.88 158.38 56.39C157.82 55.91 156.95 55.66 155.78 55.66H153.95V61.47L153.94 61.48Z" fill="white"></path>
    <path d="M184.41 62.05C184.41 63.47 184.17 64.78 183.68 65.97C183.19 67.17 182.5 68.2 181.61 69.08C180.72 69.96 179.65 70.64 178.4 71.13C177.15 71.62 175.76 71.86 174.24 71.86H166.62V52.25H174.24C175.77 52.25 177.15 52.5 178.4 52.99C179.65 53.48 180.72 54.17 181.61 55.04C182.5 55.91 183.19 56.94 183.68 58.14C184.17 59.34 184.41 60.64 184.41 62.05ZM179.76 62.05C179.76 61.08 179.63 60.21 179.38 59.43C179.13 58.65 178.77 57.99 178.3 57.45C177.83 56.91 177.25 56.49 176.57 56.2C175.89 55.91 175.11 55.76 174.24 55.76H171.2V68.37H174.24C175.11 68.37 175.89 68.22 176.57 67.93C177.25 67.64 177.83 67.22 178.3 66.68C178.77 66.14 179.13 65.48 179.38 64.7C179.63 63.92 179.76 63.04 179.76 62.06V62.05Z" fill="white"></path>
    <path d="M196.85 56.24C196.72 56.46 196.57 56.62 196.43 56.72C196.28 56.83 196.09 56.88 195.86 56.88C195.65 56.88 195.43 56.82 195.19 56.68C194.95 56.55 194.68 56.4 194.38 56.24C194.08 56.08 193.74 55.93 193.35 55.8C192.96 55.67 192.52 55.61 192.03 55.61C191.18 55.61 190.54 55.79 190.13 56.16C189.71 56.52 189.5 57.01 189.5 57.63C189.5 58.03 189.63 58.35 189.88 58.61C190.13 58.87 190.46 59.09 190.87 59.28C191.28 59.47 191.75 59.64 192.27 59.8C192.8 59.96 193.33 60.13 193.88 60.33C194.43 60.53 194.96 60.75 195.49 61.01C196.01 61.27 196.48 61.6 196.89 62.01C197.3 62.41 197.63 62.9 197.88 63.48C198.13 64.06 198.26 64.76 198.26 65.57C198.26 66.48 198.1 67.32 197.79 68.11C197.48 68.9 197.02 69.59 196.42 70.18C195.82 70.77 195.09 71.23 194.21 71.57C193.34 71.91 192.34 72.07 191.23 72.07C190.62 72.07 190 72.01 189.37 71.88C188.74 71.75 188.13 71.58 187.53 71.35C186.94 71.12 186.38 70.85 185.86 70.54C185.34 70.23 184.89 69.88 184.5 69.49L185.85 67.36C185.95 67.2 186.09 67.07 186.27 66.97C186.45 66.87 186.64 66.82 186.85 66.82C187.12 66.82 187.39 66.91 187.66 67.08C187.93 67.25 188.24 67.44 188.59 67.65C188.94 67.86 189.33 68.05 189.78 68.22C190.23 68.39 190.76 68.48 191.37 68.48C192.2 68.48 192.84 68.3 193.29 67.93C193.75 67.57 193.98 66.99 193.98 66.2C193.98 65.74 193.85 65.37 193.6 65.08C193.35 64.79 193.02 64.55 192.61 64.37C192.2 64.18 191.74 64.02 191.22 63.87C190.7 63.73 190.17 63.57 189.62 63.39C189.07 63.22 188.54 63 188.02 62.74C187.5 62.48 187.03 62.15 186.63 61.73C186.22 61.31 185.89 60.79 185.64 60.17C185.39 59.55 185.26 58.78 185.26 57.86C185.26 57.12 185.41 56.41 185.7 55.71C185.99 55.01 186.43 54.39 187.01 53.84C187.59 53.29 188.29 52.86 189.12 52.53C189.95 52.2 190.91 52.04 191.99 52.04C192.59 52.04 193.18 52.09 193.75 52.18C194.32 52.27 194.86 52.41 195.37 52.6C195.88 52.79 196.36 53 196.8 53.26C197.24 53.52 197.64 53.81 197.99 54.13L196.86 56.24H196.85Z" fill="white"></path>
    <path d="M2.23999 37.99C3.14999 38.04 3.97999 38.14 4.79999 38.13C11.46 38.08 18.11 38.01 24.77 37.96C29.45 37.92 33.28 36.08 35.9 32.21C38.27 28.7 38.39 24.82 36.45 21.08C34.25 16.85 30.51 14.75 25.82 14.56C21.69 14.4 17.55 14.53 13.41 14.5C12.58 14.5 11.58 14.59 10.95 14.18C10.15 13.67 9.12999 12.71 9.12999 11.94C9.12999 11.04 9.97999 9.99 10.73 9.29C11.2 8.85 12.17 8.83 12.91 8.82C17.28 8.78 21.65 8.67 26.01 8.84C32.52 9.08 37.68 11.92 40.91 17.67C47.75 29.86 39.05 42.79 26.99 43.26C19.73 43.54 12.46 43.41 5.19999 43.45C2.12999 43.47 2.07999 43.51 2.07999 46.48C2.08999 51.31 2.09999 56.13 2.10999 60.96C2.10999 63.24 2.10999 65.51 2.10999 67.91H10.95V52.44C12.29 52.44 13.42 52.45 14.54 52.44C19.13 52.37 23.74 52.46 28.32 52.19C38.32 51.6 47.99 44.08 50.97 33.58C55.31 18.31 46.17 2.96 30.45 0.660004C23.92 -0.289996 17.16 4.18723e-06 10.51 0.190004C6.77999 0.300004 3.66999 2.32 1.68999 5.66C-3.01001 13.64 2.59999 23.24 12.09 23.42C16.38 23.5 20.67 23.4 24.96 23.52C26.82 23.57 28.65 24.28 28.69 26.46C28.73 28.68 26.79 29.05 25.08 29.14C22.56 29.27 20.03 29.21 17.5 29.22C12.47 29.22 7.43999 29.22 2.22999 29.22V37.98L2.23999 37.99Z" fill="white"></path>
  </g>
  <defs>
    <clipPath id="clip0_0_145">
      <rect width="198.25" height="72.08" fill="white"></rect>
    </clipPath>
  </defs>
</svg>
