<?xml version="1.0" encoding="UTF-8"?>
<svg xmlns="http://www.w3.org/2000/svg" width="363" height="172" viewBox="0 0 363 172" fill="none">
  <g clip-path="url(#clip0_0_128)">
    <path d="M65.86 24.9V25.76C65.86 25.83 65.89 25.9 65.95 25.94C65.98 25.97 66.03 25.99 66.09 25.99H66.14L78.27 23.85C78.27 23.85 78.3 23.84 78.32 23.84C78.36 23.84 78.41 23.86 78.46 23.89C78.51 23.94 78.54 24.01 78.54 24.08V30.76C78.54 30.83 78.51 30.91 78.46 30.97C78.41 31.03 78.34 31.07 78.27 31.09L66.14 33.23C66.07 33.25 66 33.28 65.95 33.35C65.89 33.41 65.86 33.49 65.86 33.56V34.44C65.86 34.51 65.89 34.57 65.95 34.62C65.98 34.66 66.03 34.67 66.09 34.67H66.14L78.83 32.43H78.91C79.04 32.43 79.1 32.49 79.1 32.64V40.37C79.1 40.44 79.08 40.52 79.02 40.58C78.97 40.65 78.9 40.68 78.83 40.7L56.03 44.73H55.98C55.98 44.73 55.89 44.71 55.84 44.68C55.79 44.63 55.76 44.58 55.76 44.5V18.42C55.76 18.35 55.79 18.27 55.84 18.21C55.89 18.15 55.96 18.12 56.03 18.09L78.83 14.07C78.83 14.07 78.86 14.06 78.87 14.06C78.93 14.06 78.97 14.08 79.02 14.12C79.08 14.16 79.1 14.22 79.1 14.3V22.02C79.1 22.09 79.08 22.17 79.02 22.23C78.97 22.29 78.9 22.35 78.83 22.35L66.14 24.59C66.07 24.6 66 24.64 65.95 24.71C65.89 24.77 65.86 24.85 65.86 24.92V24.9Z" fill="white"></path>
    <path d="M52.74 18.97V45C52.74 45.2 52.66 45.31 52.46 45.35L42.9 47.04C42.9 47.04 42.85 47.05 42.83 47.05C42.68 47.05 42.62 46.97 42.62 46.79V38.23C42.62 38.07 42.55 37.99 42.41 37.99C42.39 37.99 42.36 38 42.33 38L36.64 39.01C36.45 39.04 36.36 39.16 36.36 39.35V47.91C36.36 48.1 36.26 48.21 36.07 48.26L26.52 49.95H26.44C26.29 49.95 26.23 49.87 26.23 49.7V23.68C26.23 23.48 26.32 23.37 26.52 23.33L36.07 21.64H36.15C36.29 21.64 36.36 21.71 36.36 21.89V30.43C36.36 30.6 36.42 30.69 36.57 30.69C36.59 30.69 36.62 30.68 36.64 30.68L42.33 29.67C42.52 29.64 42.62 29.52 42.62 29.32V20.77C42.62 20.57 42.7 20.46 42.88 20.43L52.46 18.73C52.46 18.73 52.51 18.72 52.54 18.72C52.68 18.72 52.74 18.81 52.74 18.97Z" fill="white"></path>
    <path d="M24.49 23.94V32.35C24.49 32.42 24.46 32.5 24.41 32.56C24.36 32.63 24.28 32.66 24.21 32.68L17.58 33.85C17.51 33.86 17.44 33.9 17.39 33.97C17.33 34.04 17.31 34.11 17.31 34.18V51.26C17.31 51.33 17.28 51.41 17.22 51.47C17.17 51.54 17.1 51.59 17.03 51.59L7.49002 53.28C7.49002 53.28 7.46002 53.29 7.45002 53.29C7.39002 53.29 7.33002 53.27 7.29002 53.23C7.23002 53.19 7.20002 53.14 7.20002 53.05V35.97C7.20002 35.9 7.18002 35.84 7.13002 35.79C7.09002 35.75 7.05002 35.74 6.98002 35.74H6.94002L0.29002 36.91C0.29002 36.91 0.26002 36.92 0.25002 36.92C0.20002 36.92 0.15002 36.9 0.10002 36.86C0.0500195 36.82 0.0200195 36.76 0.0200195 36.68V28.26C0.0200195 28.2 0.0500195 28.12 0.10002 28.05C0.15002 27.98 0.22002 27.93 0.29002 27.91L24.22 23.69H24.27C24.32 23.69 24.37 23.71 24.42 23.75C24.47 23.8 24.5 23.87 24.5 23.94H24.49Z" fill="white"></path>
    <path d="M362.73 57.46L352.64 41.44C352.5 41.17 352.54 40.91 352.77 40.63C355.18 37.89 357.06 34.84 358.41 31.46C359.77 28.07 360.46 24.59 360.46 21.04C360.46 17.49 359.81 14.54 358.54 11.68C357.28 8.83001 355.56 6.48001 353.39 4.63001C351.23 2.78001 348.66 1.46001 345.68 0.670006C343.95 0.220006 342.19 -0.00999451 340.37 -0.00999451C339.03 -0.00999451 337.67 0.120005 336.28 0.350005L301.56 6.48001C301.16 6.54001 300.98 6.80001 300.98 7.23001V68.59C300.98 69 301.14 69.2 301.45 69.2C301.5 69.2 301.55 69.2 301.6 69.17L324.22 65.19C324.39 65.16 324.53 65.08 324.66 64.92C324.8 64.76 324.85 64.6 324.85 64.43V52.87C324.85 52.47 325.05 52.23 325.45 52.16L329.56 51.44C329.56 51.44 329.63 51.44 329.66 51.44C329.84 51.44 330 51.53 330.11 51.7L336.98 62.6C337.09 62.77 337.25 62.85 337.44 62.85C337.48 62.85 337.52 62.85 337.58 62.85L362.19 58.51C362.44 58.47 362.64 58.33 362.76 58.11C362.9 57.89 362.88 57.65 362.73 57.45V57.46ZM336.82 26.04C336.68 27.51 336.06 28.85 334.93 30.02C333.81 31.2 332.52 31.91 331.05 32.17L325.5 33.14C325.45 33.14 325.38 33.14 325.33 33.14C325.02 33.14 324.86 32.95 324.86 32.54V22.53C324.86 22.36 324.93 22.19 325.06 22.04C325.19 21.88 325.33 21.79 325.5 21.77L331.35 20.73C331.7 20.67 332.03 20.64 332.36 20.64C333.53 20.64 334.56 21.06 335.42 21.88C336.53 22.93 337 24.31 336.83 26.03L336.82 26.04Z" fill="white"></path>
    <path d="M263.13 33.43V35.43C263.13 35.62 263.19 35.76 263.33 35.86C263.42 35.94 263.54 35.99 263.67 35.99H263.77L292.37 30.95C292.37 30.95 292.43 30.94 292.46 30.94C292.6 30.94 292.7 30.98 292.81 31.07C292.94 31.19 293 31.32 293 31.5V47.24C293 47.42 292.94 47.59 292.81 47.73C292.68 47.89 292.54 47.97 292.37 48.01L263.77 53.04C263.6 53.07 263.46 53.17 263.33 53.31C263.19 53.47 263.13 53.64 263.13 53.81V55.87C263.13 56.04 263.19 56.18 263.33 56.29C263.42 56.37 263.54 56.42 263.67 56.42H263.77L293.68 51.15C293.74 51.13 293.81 51.13 293.86 51.13C294.16 51.13 294.31 51.3 294.31 51.64V69.83C294.31 70.01 294.26 70.17 294.12 70.33C293.99 70.48 293.85 70.57 293.68 70.6L239.98 80.07H239.86C239.74 80.07 239.63 80.03 239.52 79.95C239.39 79.83 239.33 79.7 239.33 79.52V18.12C239.33 17.94 239.39 17.77 239.52 17.63C239.65 17.47 239.8 17.39 239.97 17.36L293.67 7.89C293.67 7.89 293.74 7.88 293.77 7.88C293.9 7.88 294.01 7.92 294.11 8.01C294.25 8.11 294.3 8.26001 294.3 8.43001V26.62C294.3 26.8 294.25 26.97 294.11 27.12C293.98 27.27 293.84 27.36 293.67 27.39L263.76 32.66C263.59 32.69 263.45 32.79 263.32 32.93C263.18 33.08 263.12 33.24 263.12 33.42L263.13 33.43Z" fill="white"></path>
    <path d="M235.94 18.94L217.49 83.46C217.37 83.81 217.15 84.01 216.85 84.06L190.12 88.78C190.07 88.78 190.02 88.79 189.95 88.79C189.69 88.79 189.53 88.64 189.49 88.36L186.01 69.86C185.97 69.55 185.8 69.39 185.53 69.39C185.49 69.39 185.44 69.39 185.37 69.41C185 69.47 184.79 69.69 184.74 70.08L181.26 89.82C181.2 90.18 180.99 90.39 180.62 90.45L153.86 95.17C153.86 95.17 153.78 95.19 153.74 95.19C153.51 95.19 153.35 95.05 153.26 94.79L134.81 36.78C134.75 36.55 134.78 36.34 134.89 36.14C134.99 35.95 135.17 35.84 135.39 35.79L157.96 31.81C158.01 31.8 158.05 31.8 158.1 31.8C158.33 31.8 158.49 31.94 158.56 32.2L166.66 58.79C166.73 59.05 166.89 59.19 167.13 59.19C167.18 59.19 167.22 59.18 167.28 59.17C167.6 59.12 167.81 58.92 167.9 58.58L175.95 29.12C176.03 28.78 176.24 28.59 176.59 28.53L194.15 25.43C194.15 25.43 194.23 25.42 194.28 25.42C194.52 25.42 194.67 25.55 194.74 25.81L202.85 52.41C202.91 52.66 203.08 52.8 203.32 52.8C203.36 52.8 203.41 52.8 203.47 52.78C203.8 52.73 203.99 52.53 204.08 52.2L212.19 22.73C212.27 22.39 212.47 22.2 212.78 22.14L235.3 18.17C235.35 18.16 235.39 18.16 235.43 18.16C235.61 18.16 235.73 18.23 235.84 18.37C235.97 18.53 236 18.72 235.94 18.94Z" fill="white"></path>
    <path d="M131.93 50.62C129.04 46.11 125.01 42.92 119.82 41.06C116.63 39.91 113.16 39.34 109.43 39.34C107.09 39.34 104.66 39.56 102.11 40C95.49 41.17 89.59 43.6 84.41 47.3C79.21 51 75.18 55.61 72.3 61.14C69.41 66.67 67.97 72.63 67.97 79.04C67.97 85.45 69.41 90.92 72.3 95.43C75.18 99.92 79.22 103.13 84.41 104.99C87.6 106.14 91.06 106.72 94.8 106.72C97.12 106.72 99.57 106.49 102.11 106.04C108.74 104.87 114.63 102.44 119.82 98.74C125.01 95.04 129.04 90.43 131.93 84.91C134.81 79.38 136.26 73.42 136.26 67C136.26 60.58 134.81 55.13 131.93 50.62ZM108.64 78.81C106.83 81.03 104.66 82.37 102.1 82.81C101.54 82.92 101 82.97 100.47 82.97C98.61 82.97 96.98 82.35 95.57 81.11C93.76 79.52 92.85 77.36 92.85 74.65C92.85 71.94 93.73 69.32 95.46 67.17C97.2 64.99 99.41 63.69 102.1 63.21C102.74 63.11 103.34 63.04 103.91 63.04C105.8 63.04 107.4 63.64 108.74 64.81C110.48 66.35 111.34 68.55 111.34 71.38C111.34 74.21 110.44 76.56 108.63 78.8L108.64 78.81Z" fill="white"></path>
    <path d="M62.85 61.27C60.7 57.74 57.76 55.17 54.02 53.55C51.49 52.47 48.82 51.93 45.98 51.93C44.61 51.93 43.19 52.04 41.75 52.3L7.09 58.42C6.92 58.45 6.77 58.53 6.63 58.69C6.52 58.83 6.44 59 6.44 59.18V120.59C6.44 120.77 6.52 120.9 6.63 121.02C6.74 121.09 6.85 121.13 6.98 121.13H7.09L29.7 117.15C30.13 117.07 30.34 116.82 30.34 116.38V104.87C30.34 104.71 30.41 104.54 30.53 104.38C30.66 104.24 30.8 104.14 30.98 104.11L40.94 102.35C45.32 101.59 49.42 99.78 53.22 96.96C57.03 94.12 60.07 90.63 62.37 86.47C64.66 82.31 65.85 77.96 65.94 73.47C66.02 68.87 64.99 64.82 62.86 61.28L62.85 61.27ZM42.3 77.97C42.16 79.44 41.53 80.79 40.41 81.95C39.29 83.12 38 83.85 36.52 84.09L31.02 85.07C30.94 85.07 30.88 85.09 30.83 85.09C30.49 85.09 30.33 84.9 30.33 84.48V74.47C30.33 74.3 30.4 74.13 30.52 73.99C30.65 73.83 30.79 73.74 30.97 73.72L36.82 72.68C37.17 72.62 37.5 72.59 37.82 72.59C39.01 72.59 40.02 73 40.89 73.83C41.99 74.86 42.47 76.25 42.3 77.97Z" fill="white"></path>
    <path d="M70.41 118.3V144.38C70.41 144.44 70.39 144.52 70.33 144.59C70.28 144.65 70.21 144.68 70.14 144.69L60.55 146.39C60.55 146.39 60.52 146.4 60.5 146.4C60.45 146.4 60.41 146.38 60.35 146.34C60.31 146.3 60.28 146.24 60.28 146.16V120.09C60.28 120.01 60.31 119.94 60.35 119.88C60.41 119.81 60.48 119.78 60.55 119.75L70.14 118.06H70.18C70.24 118.06 70.28 118.07 70.33 118.11C70.39 118.15 70.41 118.21 70.41 118.29V118.3Z" fill="#FF6600"></path>
    <path d="M97.62 133.41C97.3 134.72 96.77 135.91 96.04 136.98C95.31 138.05 94.39 138.97 93.31 139.75C92.22 140.52 91.07 141.02 89.86 141.23L73.92 144.04H73.87C73.82 144.04 73.78 144.03 73.72 143.99C73.66 143.95 73.63 143.89 73.63 143.81V136.1C73.63 135.9 73.72 135.8 73.92 135.75L86.18 133.59C86.38 133.55 86.54 133.46 86.67 133.3C86.81 133.14 86.87 132.96 86.87 132.77C86.87 132.58 86.81 132.41 86.67 132.31C86.58 132.22 86.45 132.17 86.31 132.17C86.27 132.17 86.23 132.18 86.17 132.18L80.74 133.14C80.28 133.22 79.82 133.26 79.38 133.26C78.66 133.26 77.97 133.17 77.31 132.95C76.23 132.61 75.33 132.07 74.59 131.31C73.86 130.57 73.32 129.61 72.99 128.46C72.65 127.3 72.59 126.07 72.81 124.76C73.17 122.62 74.15 120.73 75.78 119.1C77.41 117.47 79.25 116.48 81.34 116.11L96.7 113.39H96.74C96.79 113.39 96.83 113.41 96.89 113.44C96.94 113.49 96.96 113.54 96.96 113.62V121.37C96.96 121.54 96.89 121.64 96.71 121.67L84.41 123.84C84.22 123.87 84.05 123.97 83.93 124.13C83.79 124.29 83.73 124.46 83.73 124.66C83.73 124.85 83.79 125.01 83.93 125.12C84.03 125.2 84.15 125.26 84.29 125.26C84.33 125.26 84.37 125.25 84.42 125.24L89.59 124.34C90.11 124.25 90.62 124.2 91.11 124.2C92.48 124.2 93.74 124.56 94.9 125.28C96.45 126.27 97.41 127.7 97.77 129.59C98 130.83 97.95 132.1 97.62 133.41Z" fill="#FF6600"></path>
    <path d="M362.18 114.11C361.43 117.19 360.18 119.99 358.46 122.51C356.73 125.04 354.59 127.21 352.03 129.03C349.47 130.84 346.76 132.01 343.9 132.51L306.36 139.14H306.24C306.12 139.14 306 139.1 305.89 139.02C305.74 138.9 305.67 138.77 305.67 138.59V120.44C305.67 119.98 305.9 119.71 306.35 119.62L335.24 114.52C335.69 114.45 336.07 114.22 336.38 113.85C336.69 113.47 336.84 113.04 336.84 112.58C336.84 112.12 336.69 111.75 336.38 111.48C336.14 111.28 335.86 111.18 335.53 111.18C335.44 111.18 335.34 111.19 335.24 111.2L322.43 113.47C321.33 113.67 320.26 113.76 319.21 113.76C317.52 113.76 315.91 113.51 314.34 113.01C311.81 112.2 309.68 110.92 307.95 109.16C306.23 107.39 304.97 105.14 304.17 102.43C303.38 99.71 303.25 96.81 303.75 93.72C304.57 88.68 306.9 84.23 310.73 80.39C314.56 76.55 318.92 74.2 323.82 73.34L360 66.95C360 66.95 360.07 66.94 360.1 66.94C360.23 66.94 360.34 66.98 360.44 67.08C360.58 67.18 360.64 67.32 360.64 67.5V85.74C360.64 86.16 360.44 86.39 360.04 86.45L331.07 91.57C330.62 91.64 330.24 91.87 329.93 92.25C329.62 92.63 329.47 93.05 329.47 93.51C329.47 93.97 329.62 94.35 329.93 94.61C330.17 94.81 330.45 94.91 330.78 94.91C330.87 94.91 330.97 94.9 331.07 94.89L343.24 92.74C344.47 92.53 345.65 92.41 346.81 92.41C350.06 92.41 353.04 93.26 355.74 94.97C359.4 97.29 361.65 100.67 362.5 105.13C363.04 108.03 362.92 111.03 362.15 114.11H362.18Z" fill="#FF6600"></path>
    <path d="M300.89 139.15L290.79 123.12C290.65 122.86 290.7 122.59 290.92 122.31C293.34 119.58 295.21 116.52 296.56 113.13C297.92 109.75 298.6 106.27 298.6 102.71C298.6 99.15 297.95 96.2 296.68 93.35C295.41 90.51 293.69 88.15 291.53 86.31C289.36 84.46 286.79 83.14 283.81 82.35C282.1 81.9 280.33 81.68 278.51 81.68C277.16 81.68 275.81 81.8 274.41 82.04L239.72 88.16C239.32 88.23 239.13 88.48 239.13 88.92V150.28C239.13 150.69 239.28 150.87 239.6 150.87C239.66 150.87 239.71 150.87 239.77 150.87L262.38 146.89C262.54 146.86 262.69 146.76 262.82 146.62C262.96 146.47 263.01 146.31 263.01 146.13V134.58C263.01 134.17 263.2 133.94 263.59 133.87L267.7 133.14H267.82C267.99 133.14 268.14 133.22 268.26 133.39L275.13 144.3C275.25 144.47 275.4 144.56 275.6 144.56C275.64 144.56 275.68 144.56 275.74 144.54L300.34 140.21C300.59 140.17 300.8 140.03 300.92 139.79C301.05 139.56 301.04 139.35 300.9 139.15H300.89ZM274.97 107.72C274.83 109.2 274.2 110.53 273.08 111.7C271.97 112.87 270.66 113.59 269.2 113.84L263.64 114.82C263.59 114.82 263.53 114.84 263.48 114.84C263.16 114.84 263.01 114.63 263.01 114.23V104.22C263.01 104.04 263.06 103.88 263.2 103.73C263.33 103.58 263.48 103.48 263.64 103.45L269.5 102.42C269.85 102.36 270.18 102.33 270.5 102.33C271.68 102.33 272.7 102.74 273.57 103.56C274.68 104.6 275.14 105.99 274.98 107.71L274.97 107.72Z" fill="#FF6600"></path>
    <path d="M232.76 90.05V123.3C232.76 133.82 230.41 141.94 225.71 147.67C221.02 153.41 213.63 157.16 203.53 158.93C200.55 159.45 197.79 159.72 195.28 159.72C189.37 159.72 184.74 158.27 181.4 155.38C176.61 151.26 174.23 144 174.23 133.62V100.38C174.23 100.2 174.29 100.04 174.42 99.89C174.55 99.73 174.69 99.65 174.86 99.61L197.52 95.63C197.52 95.63 197.59 95.62 197.61 95.62C197.75 95.62 197.86 95.66 197.96 95.75C198.09 95.87 198.15 96 198.15 96.18V129.46C198.15 133.82 199.57 136 202.39 136C202.75 136 203.13 135.97 203.54 135.9C207.16 135.26 208.97 132.48 208.97 127.55V94.27C208.97 93.83 209.17 93.58 209.57 93.5L232.17 89.52C232.23 89.51 232.27 89.51 232.33 89.51C232.62 89.51 232.77 89.7 232.77 90.07L232.76 90.05Z" fill="#FF6600"></path>
    <path d="M165.85 115.41C162.97 110.91 158.93 107.71 153.75 105.84C150.55 104.7 147.09 104.12 143.35 104.12C141.02 104.12 138.58 104.34 136.04 104.8C129.42 105.96 123.51 108.39 118.33 112.1C113.14 115.8 109.1 120.41 106.22 125.94C103.34 131.46 101.89 137.42 101.89 143.84C101.89 150.26 103.34 155.71 106.22 160.23C109.1 164.72 113.14 167.91 118.33 169.78C121.53 170.93 124.99 171.51 128.72 171.51C131.06 171.51 133.49 171.28 136.04 170.84C142.65 169.66 148.55 167.24 153.75 163.53C158.94 159.83 162.97 155.22 165.85 149.69C168.75 144.18 170.18 138.2 170.18 131.79C170.18 125.38 168.75 119.92 165.85 115.41ZM142.56 143.59C140.75 145.83 138.58 147.16 136.04 147.61C135.47 147.71 134.94 147.77 134.4 147.77C132.54 147.77 130.91 147.13 129.5 145.9C127.69 144.31 126.79 142.16 126.79 139.46C126.79 136.76 127.65 134.13 129.4 131.97C131.14 129.81 133.34 128.49 136.04 128.03C136.67 127.91 137.26 127.86 137.85 127.86C139.72 127.86 141.34 128.44 142.67 129.63C144.41 131.17 145.27 133.37 145.27 136.19C145.27 139.01 144.36 141.37 142.55 143.6L142.56 143.59Z" fill="#FF6600"></path>
  </g>
  <defs>
    <clipPath id="clip0_0_128">
      <rect width="362.85" height="171.51" fill="white"></rect>
    </clipPath>
  </defs>
</svg>
