<?xml version="1.0" encoding="UTF-8"?>
<svg xmlns="http://www.w3.org/2000/svg" width="107" height="106" viewBox="0 0 107 106" fill="none">
  <path d="M87.4357 0H19.26C8.89001 0 0.483521 8.38495 0.483521 18.7283V86.7292C0.483521 97.0725 8.89001 105.457 19.26 105.457H87.4357C97.8056 105.457 106.212 97.0725 106.212 86.7292V18.7283C106.212 8.38495 97.8056 0 87.4357 0Z" fill="#FF6600"></path>
  <path d="M91.7398 30.1898L91.2462 31.7554L88.7091 40.6666H81.5816C78.9754 40.6961 76.4284 42.6261 75.4215 45.0877L75.7275 43.9751L78.4127 34.7192C79.3999 32.1788 81.8481 30.3473 84.4543 30.1799H91.7398V30.1898Z" fill="white"></path>
  <path d="M73.4668 36.9544C73.9111 37.4664 74.1974 38.136 74.0789 38.8351L72.9535 42.823L68.7678 42.8033C69.0047 41.858 69.3108 40.962 69.4983 39.9773C69.5477 39.8099 69.449 39.6425 69.3996 39.4948C68.6197 38.7662 67.4943 38.5102 66.4874 38.8449C65.125 39.1108 64.0589 40.4598 63.4567 41.6709L62.9828 42.8033L60.4457 51.616C60.1891 52.4628 59.8139 53.4967 60.426 54.2943C61.4626 55.5547 63.3185 55.5252 64.7104 55.1116C65.0856 54.9639 65.5792 54.895 65.7963 54.5602C66.1715 53.162 66.6453 51.7637 66.9908 50.3557L66.8921 50.3064H63.8614L64.898 46.5844L64.9671 46.5352C64.9671 46.5352 64.9177 46.5155 64.9177 46.4662C67.1784 46.4466 69.5477 46.4662 71.8775 46.4662L71.8281 46.7813L68.5605 57.9868C65.1941 58.8829 60.9196 59.6017 57.6224 58.0853C55.7862 56.9234 55.411 54.7079 55.7368 52.6992L56.0231 51.5865L58.8465 41.9762C59.6659 39.3668 61.2454 36.5408 63.9996 35.6743C66.517 35.0441 69.4588 35.1623 71.8775 35.891C72.4698 36.1076 73.0029 36.4424 73.4767 36.9544H73.4668Z" fill="white"></path>
  <path d="M38.2832 40.6469C38.7768 41.2279 38.994 41.9073 38.7768 42.6556L37.6218 46.5648C36.1607 46.6337 34.7787 46.5451 33.367 46.5648C33.5743 45.7179 33.8606 44.9204 34.0778 44.0539C34.1271 43.5024 33.7717 43.02 33.3473 42.7541C32.4785 42.3208 31.3728 42.5572 30.6423 43.1874C29.6354 44.0046 29.1615 45.1665 29.1615 46.4466C29.1813 46.9291 29.3985 47.3131 29.7045 47.6774C31.0964 48.9772 32.5772 50.1588 34.0087 51.4487C34.8576 52.3644 35.2525 53.674 34.9959 54.9048C34.6898 57.7505 33.1103 60.675 30.4054 61.8861C27.8881 63.0185 24.5711 63.432 21.9649 62.2504C20.6026 61.4824 19.872 60.0251 20.0398 58.4792C20.2965 57.1696 20.7704 55.9486 21.0764 54.6882C22.3696 54.6587 23.9491 54.6882 25.3806 54.6882C25.2128 55.9486 23.9886 57.6619 25.4299 58.6958C26.2987 59.3457 27.5425 58.942 28.3718 58.4595C29.4577 57.6914 30.0402 56.4508 30.2968 55.2495C30.435 53.9497 29.0233 53.5066 28.3422 52.6697C26.8614 51.0942 24.3934 50.0603 24.2947 47.6183C24.2947 45.2256 25.2325 43.0003 26.7133 41.1688C29.2306 38.5791 33.5842 38.3625 36.7531 39.6426C37.3158 39.8592 37.8587 40.2235 38.2832 40.6568V40.6469Z" fill="white"></path>
  <path d="M50.3467 39.4456C52.0447 39.5933 53.8019 40.125 54.6015 41.8383C55.3814 43.4138 54.9569 45.3437 54.5324 46.9586L51.0772 58.6958C50.2973 60.8226 48.1847 62.2504 45.9734 62.2701H35.9731L36.0422 61.9845L38.836 52.325L42.5972 39.4259L50.3368 39.4456H50.3467ZM46.0919 43.1381L46.0425 43.1873L41.6199 58.2822L41.6693 58.3511C42.9625 58.3708 44.236 58.4201 45.618 58.3511C46.0623 58.2527 46.467 57.9868 46.8125 57.6028C47.4443 56.5394 47.6122 55.3282 47.9873 54.1762L50.4059 45.9641C50.5441 45.4324 50.8008 44.8317 50.5737 44.2704C50.3862 43.7584 49.8432 43.2562 49.3003 43.1873L46.082 43.1381H46.0919Z" fill="white"></path>
  <path d="M86.4781 46.4761C86.1721 47.7364 85.7772 49.0165 85.3922 50.2966C83.0921 50.3163 80.8807 50.3458 78.6398 50.3163C78.0771 52.0788 77.5539 53.8414 77.0603 55.6334L77.1491 55.6827H83.4277L83.4474 55.7319C83.0526 57.0612 82.6774 58.4397 82.2529 59.7887L75.8756 59.8183C75.2142 61.8467 74.6515 63.8258 74.0888 65.8542L74.1086 65.9035C76.4877 65.9527 78.8372 65.9035 81.2361 65.9527L80.1305 69.8618L79.2617 69.9111H68.3236L68.3927 69.4483L71.8775 57.4452L75.0069 46.5056L75.0563 46.4761H86.4683H86.4781Z" fill="white"></path>
  <path d="M64.9276 70.6791C64.0095 73.0029 61.7291 74.9033 59.2809 75.1692L57.8494 75.2677L14.9459 75.2283L18.0556 64.8302C20.0991 64.7613 61.5712 64.8302 61.5712 64.8302C64.2761 64.781 66.8922 62.8215 67.8991 60.2417L64.9375 70.6791H64.9276Z" fill="white"></path>
</svg>
