<?xml version="1.0" encoding="UTF-8"?>
<svg xmlns="http://www.w3.org/2000/svg" width="124" height="124" viewBox="0 0 124 124" fill="none">
  <path d="M61.79 123.58C95.9157 123.58 123.58 95.9157 123.58 61.79C123.58 27.6643 95.9157 0 61.79 0C27.6643 0 0 27.6643 0 61.79C0 95.9157 27.6643 123.58 61.79 123.58Z" fill="url(#paint0_linear_20_2598)"></path>
  <path d="M56.4898 105.16C54.9398 106.02 54.5198 105.82 54.4298 105.74C54.3298 105.65 54.3398 105.14 54.4798 104.71C56.3298 98.72 58.4098 85.62 51.5898 65.16C42.1298 36.78 57.1198 23.72 66.9098 18.46L67.0398 18.37C67.4398 18.07 68.0898 17.76 68.4498 17.76C68.5498 17.76 68.6198 17.78 68.6698 17.83C69.1598 18.37 69.1098 18.69 68.8398 19.72L68.7298 20.12C66.8998 27.58 65.9798 40.26 72.0098 58.35C80.8798 84.97 68.4698 98.5 56.4898 105.16Z" fill="white"></path>
  <path d="M96.8599 71.34C96.8599 82.55 90.2199 88.98 83.7499 92.57C83.1099 92.93 82.7899 93 82.6599 93.01C82.6599 92.9 82.6799 92.72 82.7299 92.58C84.0599 88.26 85.5599 78.82 80.6499 64.11C73.9499 44 84.5599 34.76 91.4799 31.04L91.6099 30.95C91.8899 30.74 92.3199 30.55 92.3999 30.53C92.6399 30.79 92.6399 30.88 92.4499 31.61L92.3799 31.91C91.0499 37.28 90.3899 46.41 94.7199 59.42C96.2099 63.9 96.8599 67.85 96.8599 71.34Z" fill="white"></path>
  <path d="M45.0699 71.33C45.0699 82.55 38.4299 88.98 31.9699 92.57C31.3199 92.93 30.9999 93 30.8699 93.01C30.8699 92.9 30.8999 92.72 30.9399 92.58C32.2699 88.26 33.7699 78.82 28.8699 64.11C22.1699 44 32.7699 34.76 39.6899 31.04L39.8199 30.95C40.0999 30.74 40.5399 30.55 40.6099 30.53C40.8499 30.79 40.8599 30.88 40.6699 31.61L40.5899 31.91C39.2699 37.28 38.5999 46.41 42.9399 59.42C44.4299 63.89 45.0699 67.85 45.0699 71.33Z" fill="white"></path>
  <defs>
    <linearGradient id="paint0_linear_20_2598" x1="13.89" y1="114.04" x2="113.28" y2="5.62" gradientUnits="userSpaceOnUse">
      <stop stop-color="#F6441E"></stop>
      <stop offset="1" stop-color="#FEF252"></stop>
    </linearGradient>
  </defs>
</svg>
